<?xml version="1.0" encoding="utf-8"?>
<!-- Generator: Adobe Illustrator 22.1.0, SVG Export Plug-In . SVG Version: 6.00 Build 0)  -->
<svg version="1.1" id="Layer_1" xmlns="http://www.w3.org/2000/svg" xmlns:xlink="http://www.w3.org/1999/xlink" x="0px" y="0px"
	 viewBox="0 0 137 35.3" style="enable-background:new 0 0 137 35.3;" xml:space="preserve">
<style type="text/css">
	.st0{fill:#0072B8;}
	.st1{fill:#891360;}
	.st2{fill:#6C9CD3;}
	.st3{fill:#1F80C1;}
	.st4{fill:#5A94CE;}
	.st5{fill:#3586C7;}
	.st6{fill:#957485;}
	.st7{fill:#9F8090;}
	.st8{fill:#9F4B78;}
	.st9{fill:#B17091;}
	.st10{fill:#914E73;}
	.st11{fill:#BC85A1;}
	.st12{fill:#846072;}
	.st13{fill:#7C6883;}
	.st14{fill:#653E51;}
	.st15{fill:#0072BC;}
	.st16{fill:#8D1360;}
</style>
<g>
	<path class="st0" d="M43.9,5.5c1.7,0,3,0.6,4.1,1.6c0.2,0.1,0.2,0.3,0,0.5l-0.8,0.8c-0.1,0.2-0.3,0.2-0.4,0c-0.8-0.7-1.9-1.1-3-1.1
		c-2.4,0-4.3,2.1-4.3,4.5s1.9,4.4,4.3,4.4c1.3,0,2.1-0.5,2.9-1.1c0.2-0.1,0.3-0.1,0.4,0l0.8,0.8c0.1,0.1,0.1,0.3,0,0.5
		c-1.2,1.1-2.6,1.7-4.2,1.7c-3.4,0-6.2-2.7-6.2-6.1S40.5,5.5,43.9,5.5"/>
	<path class="st0" d="M50.5,6c0-0.2,0.2-0.3,0.3-0.3H52c0.2,0,0.3,0.2,0.3,0.3v4.8h6.3V6c0-0.2,0.1-0.3,0.3-0.3H60
		c0.2,0,0.3,0.2,0.3,0.3v11.3c0,0.2-0.2,0.3-0.3,0.3h-1.1c-0.2,0-0.3-0.2-0.3-0.3v-4.9h-6.3v4.9c0,0.2-0.1,0.3-0.3,0.3h-1.1
		c-0.2,0-0.3-0.2-0.3-0.3V6H50.5z"/>
	<path class="st0" d="M70.3,13.6l-2.1-4.7h-0.1L66,13.6H70.3z M62.6,17.2l5.3-11.5c0.1-0.1,0.2-0.2,0.3-0.2h0.2
		c0.1,0,0.2,0.1,0.3,0.2l5.2,11.5c0.1,0.2,0,0.4-0.3,0.4h-1.1c-0.2,0-0.3-0.1-0.4-0.3L71,15h-5.6c-0.3,0.8-0.7,1.6-1,2.3
		c-0.1,0.1-0.2,0.3-0.4,0.3h-1.1C62.6,17.7,62.5,17.4,62.6,17.2"/>
	<path class="st0" d="M80.9,11.5c1.1,0,2.1-0.9,2.1-2.1c0-1.1-1-2-2.1-2h-3v4.2L80.9,11.5L80.9,11.5z M76,6c0-0.2,0.1-0.3,0.3-0.3
		H81c2.1,0,3.7,1.6,3.7,3.7c0,1.6-1,2.9-2.5,3.5l2.3,4.3c0.1,0.2,0,0.5-0.3,0.5h-1.3c-0.1,0-0.2-0.1-0.3-0.2L80.4,13h-2.6v4.4
		c0,0.2-0.2,0.3-0.3,0.3h-1.1c-0.2,0-0.3-0.2-0.3-0.3L76,6L76,6z"/>
	<path class="st0" d="M89.6,7.3h-2.8c-0.2,0-0.3-0.2-0.3-0.3V6c0-0.2,0.1-0.3,0.3-0.3h7.4c0.2,0,0.3,0.2,0.3,0.3v1
		c0,0.2-0.1,0.3-0.3,0.3h-2.8v10.1c0,0.2-0.2,0.3-0.3,0.3H90c-0.2,0-0.3-0.2-0.3-0.3L89.6,7.3L89.6,7.3z"/>
	<path class="st1" d="M96.8,6.3c-0.1-0.4,0-0.7,0.4-0.7h0.9c0.3,0,0.5,0.1,0.5,0.3l2.1,7.8l0,0l3.3-8.1c0.1-0.1,0.2-0.3,0.5-0.3h0.1
		c0.3,0,0.4,0.1,0.5,0.3l3.3,8.1l0,0l2.1-7.8c0.1-0.2,0.3-0.3,0.5-0.3h0.9c0.4,0,0.6,0.3,0.4,0.7l-3.2,11.1
		c-0.1,0.2-0.3,0.3-0.5,0.3h-0.1c-0.3,0-0.4-0.1-0.5-0.3l-3.6-8.8l-3.5,8.8c-0.1,0.1-0.2,0.3-0.5,0.3h-0.1c-0.3,0-0.4-0.1-0.5-0.3
		L96.8,6.3z"/>
	<path class="st1" d="M124.2,10.4c-0.1-1.7-1.5-3.2-3.3-3.2c-2,0-3.5,1.4-3.7,3.2H124.2z M120.9,5.4c3.1,0,5.3,2.3,5.3,5.4
		c0,0.2,0,0.6-0.1,0.8c0,0.3-0.3,0.5-0.5,0.5h-8.5c0.1,2,1.9,3.8,3.9,3.8c1.2,0,2.2-0.5,2.9-0.9c0.4-0.2,0.6-0.4,0.8-0.1
		c0.2,0.2,0.3,0.4,0.5,0.7c0.2,0.3,0.3,0.4-0.1,0.8c-0.7,0.6-2.3,1.4-4.3,1.4c-3.6,0-5.8-2.8-5.8-6.2C115.1,8.2,117.3,5.4,120.9,5.4
		"/>
	<path class="st1" d="M129.2,1.3c0-0.3,0.3-0.6,0.6-0.6h0.9c0.3,0,0.6,0.3,0.6,0.6v15.8c0,0.3-0.3,0.6-0.6,0.6h-0.9
		c-0.3,0-0.6-0.3-0.6-0.6V1.3z"/>
	<path class="st1" d="M134.6,1.3c0-0.3,0.3-0.6,0.6-0.6h0.9c0.3,0,0.6,0.3,0.6,0.6v15.8c0,0.3-0.3,0.6-0.6,0.6h-0.9
		c-0.3,0-0.6-0.3-0.6-0.6V1.3z"/>
	<path class="st1" d="M38.9,26c0-0.1,0.1-0.2,0.2-0.2h0.2c0.1,0,0.2,0.1,0.2,0.2l0.1,0.3c0,0,0.4-0.6,1.3-0.6c0.3,0,0.9,0.1,0.8,0.4
		l-0.1,0.4c-0.1,0.1-0.2,0.1-0.3,0.1s-0.3-0.1-0.4-0.1c-0.9,0-1.2,0.6-1.2,0.6v3c0,0.1-0.1,0.2-0.2,0.2h-0.3c-0.1,0-0.2-0.1-0.2-0.2
		L38.9,26L38.9,26z"/>
	<path class="st1" d="M46.3,27.5c0-0.6-0.6-1.2-1.3-1.2s-1.3,0.5-1.4,1.2H46.3z M45,25.6c1.2,0,2,0.9,2,2c0,0.1,0,0.2,0,0.3
		s-0.1,0.2-0.2,0.2h-3.2c0,0.8,0.7,1.5,1.5,1.5c0.5,0,0.9-0.2,1.1-0.3c0.2-0.1,0.2-0.1,0.3,0s0.1,0.2,0.2,0.3c0.1,0.1,0.1,0.2,0,0.3
		c-0.3,0.2-0.9,0.5-1.6,0.5c-1.4,0-2.2-1.1-2.2-2.3C42.8,26.7,43.7,25.6,45,25.6"/>
	<path class="st1" d="M48.6,26.4H48c-0.1,0-0.2-0.1-0.2-0.2V26c0-0.1,0.1-0.2,0.2-0.2h0.6v-1.2c0-0.1,0.1-0.2,0.2-0.2h0.4
		c0.1,0,0.2,0.1,0.2,0.2v1.3h1.3c0.1,0,0.2,0.1,0.2,0.2v0.2c0,0.1-0.1,0.2-0.2,0.2h-1.3V29c0,0.4,0.1,0.5,0.4,0.5
		c0.3,0,0.7-0.2,0.8-0.2c0.2-0.1,0.2,0,0.3,0.1l0.2,0.3c0.1,0.1,0,0.2-0.1,0.3c-0.2,0.1-0.8,0.4-1.3,0.4c-0.9,0-1-0.5-1-1.2v-2.8
		H48.6z"/>
	<path class="st1" d="M52.1,26c0-0.1,0.1-0.2,0.2-0.2h0.3c0.1,0,0.2,0.1,0.2,0.2v4c0,0.1-0.1,0.2-0.2,0.2h-0.3
		c-0.1,0-0.2-0.1-0.2-0.2V26z M52,23.2c0-0.3,0.2-0.5,0.5-0.5s0.5,0.2,0.5,0.5s-0.2,0.5-0.5,0.5S52,23.4,52,23.2"/>
	<path class="st1" d="M54.5,26c0-0.1,0.1-0.2,0.2-0.2h0.2c0.1,0,0.2,0.1,0.2,0.2l0.1,0.3c0,0,0.4-0.6,1.3-0.6c0.3,0,0.9,0.1,0.8,0.4
		l-0.1,0.4c-0.1,0.1-0.2,0.1-0.3,0.1s-0.3-0.1-0.4-0.1c-0.9,0-1.2,0.6-1.2,0.6v3c0,0.1-0.1,0.2-0.2,0.2h-0.3c-0.1,0-0.2-0.1-0.2-0.2
		L54.5,26L54.5,26z"/>
	<path class="st1" d="M61.8,27.5c0-0.6-0.6-1.2-1.3-1.2s-1.3,0.5-1.4,1.2H61.8z M60.6,25.6c1.2,0,2,0.9,2,2c0,0.1,0,0.2,0,0.3
		s-0.1,0.2-0.2,0.2h-3.2c0,0.8,0.7,1.5,1.5,1.5c0.5,0,0.9-0.2,1.1-0.3c0.2-0.1,0.2-0.1,0.3,0s0.1,0.2,0.2,0.3c0.1,0.1,0.1,0.2,0,0.3
		c-0.3,0.2-0.9,0.5-1.6,0.5c-1.4,0-2.2-1.1-2.2-2.3C58.4,26.7,59.2,25.6,60.6,25.6"/>
	<path class="st1" d="M63.8,26c0-0.1,0.1-0.2,0.2-0.2h0.2c0.1,0,0.2,0,0.2,0.1l0.1,0.3c0,0,0.5-0.6,1.5-0.6c0.7,0,1.1,0.3,1.4,0.7
		c0.1,0,0.8-0.7,1.7-0.7c1.3,0,1.7,0.8,1.7,2V30c0,0.1-0.1,0.2-0.2,0.2h-0.4c-0.1,0-0.2-0.1-0.2-0.2v-2.4c0-0.8-0.4-1.3-1-1.3
		c-0.7,0-1.2,0.5-1.4,0.6c0,0.2,0.1,0.4,0.1,0.6V30c0,0.1-0.1,0.2-0.2,0.2h-0.4c-0.1,0-0.2-0.1-0.2-0.2v-2.4c0-0.9-0.4-1.3-1.1-1.3
		c-0.8,0-1.3,0.6-1.3,0.6v3c0,0.1-0.1,0.2-0.2,0.2H64c-0.1,0-0.2-0.1-0.2-0.2V26z"/>
	<path class="st1" d="M76,27.5c0-0.6-0.6-1.2-1.3-1.2c-0.7,0-1.3,0.5-1.4,1.2H76z M74.7,25.6c1.2,0,2,0.9,2,2c0,0.1,0,0.2,0,0.3
		s-0.1,0.2-0.2,0.2h-3.2c0,0.8,0.7,1.5,1.5,1.5c0.5,0,0.8-0.2,1.1-0.3c0.2-0.1,0.2-0.1,0.3,0c0.1,0.1,0.1,0.2,0.2,0.3s0.1,0.2,0,0.3
		c-0.3,0.2-0.9,0.5-1.6,0.5c-1.4,0-2.2-1.1-2.2-2.3C72.5,26.7,73.4,25.6,74.7,25.6"/>
	<path class="st1" d="M78,26c0-0.1,0.1-0.2,0.2-0.2h0.2c0.1,0,0.2,0,0.2,0.1l0.1,0.3c0,0,0.6-0.6,1.6-0.6c1.3,0,1.7,0.8,1.7,2V30
		c0,0.1-0.1,0.2-0.2,0.2h-0.4c-0.1,0-0.2-0.1-0.2-0.2v-2.4c0-0.9-0.4-1.3-1-1.3c-0.8,0-1.4,0.6-1.4,0.6v3c0,0.1-0.1,0.2-0.2,0.2
		h-0.3c-0.1,0-0.2-0.1-0.2-0.2L78,26L78,26z"/>
	<path class="st1" d="M83.8,26.4h-0.6c-0.1,0-0.2-0.1-0.2-0.2V26c0-0.1,0.1-0.2,0.2-0.2h0.6v-1.2c0-0.1,0.1-0.2,0.2-0.2h0.4
		c0.1,0,0.2,0.1,0.2,0.2v1.3h1.3c0.1,0,0.2,0.1,0.2,0.2v0.2c0,0.1-0.1,0.2-0.2,0.2h-1.3V29c0,0.4,0.1,0.5,0.4,0.5s0.7-0.2,0.8-0.2
		c0.2-0.1,0.2,0,0.3,0.1l0.2,0.3c0.1,0.1,0,0.2-0.1,0.3c-0.2,0.1-0.8,0.4-1.3,0.4c-0.9,0-1-0.5-1-1.2L83.8,26.4L83.8,26.4z"/>
	<path class="st1" d="M90.9,26c0-0.1,0.1-0.2,0.2-0.2h0.2c0.1,0,0.2,0.1,0.2,0.2l0.1,0.3c0,0,0.4-0.6,1.3-0.6c0.3,0,0.9,0.1,0.8,0.4
		l-0.1,0.4c-0.1,0.1-0.2,0.1-0.3,0.1c-0.1,0-0.3-0.1-0.4-0.1c-0.8,0-1.2,0.6-1.2,0.6v3c0,0.1-0.1,0.2-0.2,0.2h-0.3
		c-0.1,0-0.2-0.1-0.2-0.2L90.9,26L90.9,26z"/>
	<path class="st1" d="M97.7,27.5c0-0.6-0.6-1.2-1.3-1.2c-0.7,0-1.3,0.5-1.4,1.2H97.7z M96.4,25.6c1.2,0,2,0.9,2,2c0,0.1,0,0.2,0,0.3
		s-0.1,0.2-0.2,0.2H95c0,0.8,0.7,1.5,1.5,1.5c0.5,0,0.8-0.2,1.1-0.3c0.2-0.1,0.2-0.1,0.3,0c0.1,0.1,0.1,0.2,0.2,0.3s0.1,0.2,0,0.3
		c-0.3,0.2-0.9,0.5-1.6,0.5c-1.4,0-2.2-1.1-2.2-2.3C94.2,26.7,95.1,25.6,96.4,25.6"/>
	<path class="st1" d="M99.4,29.6c0-0.1,0.1-0.2,0.2-0.3s0.2-0.1,0.3,0c0,0,0.5,0.4,1.1,0.4c0.5,0,0.7-0.2,0.7-0.5
		c0-0.4-0.3-0.6-1-0.9c-0.6-0.3-1.3-0.7-1.3-1.4c0-0.5,0.4-1.2,1.4-1.2c0.6,0,1,0.2,1.2,0.3c0.1,0.1,0.1,0.2,0.1,0.3l-0.1,0.2
		c-0.1,0.1-0.2,0.2-0.3,0.1c0,0-0.5-0.3-0.9-0.3c-0.5,0-0.6,0.3-0.6,0.4c0,0.4,0.4,0.5,0.8,0.8c0.8,0.4,1.5,0.7,1.5,1.5
		c0,0.6-0.6,1.3-1.5,1.3c-0.8,0-1.2-0.3-1.5-0.5C99.4,29.8,99.4,29.7,99.4,29.6"/>
	<path class="st1" d="M104.2,26c0-0.1,0.1-0.2,0.2-0.2h0.3c0.1,0,0.2,0.1,0.2,0.2v4c0,0.1-0.1,0.2-0.2,0.2h-0.3
		c-0.1,0-0.2-0.1-0.2-0.2V26z M104,23.2c0-0.3,0.2-0.5,0.5-0.5s0.5,0.2,0.5,0.5s-0.2,0.5-0.5,0.5C104.3,23.7,104,23.4,104,23.2"/>
	<path class="st1" d="M108.3,29.6c0.8,0,1.2-0.7,1.2-0.7v-2.2c0,0-0.5-0.3-1.1-0.3c-1,0-1.5,0.7-1.5,1.6
		C107,28.9,107.5,29.6,108.3,29.6 M108.4,25.6c0.7,0,1.2,0.3,1.2,0.3v-3.3c0-0.1,0.1-0.2,0.2-0.2h0.3c0.1,0,0.2,0.1,0.2,0.2V30
		c0,0.1-0.1,0.2-0.2,0.2h-0.2c-0.1,0-0.2-0.1-0.2-0.2l-0.1-0.3c0,0-0.5,0.6-1.4,0.6c-1.1,0-2-1.1-2-2.4
		C106.2,26.7,107,25.6,108.4,25.6"/>
	<path class="st1" d="M115.6,27.5c0-0.6-0.6-1.2-1.3-1.2c-0.7,0-1.3,0.5-1.4,1.2H115.6z M114.3,25.6c1.2,0,2,0.9,2,2
		c0,0.1,0,0.2,0,0.3s-0.1,0.2-0.2,0.2h-3.2c0,0.8,0.7,1.5,1.5,1.5c0.5,0,0.9-0.2,1.1-0.3s0.2-0.1,0.3,0c0.1,0.1,0.1,0.2,0.2,0.3
		s0.1,0.2,0,0.3c-0.3,0.2-0.9,0.5-1.6,0.5c-1.4,0-2.2-1.1-2.2-2.3C112.1,26.7,113,25.6,114.3,25.6"/>
	<path class="st1" d="M117.6,26c0-0.1,0.1-0.2,0.2-0.2h0.2c0.1,0,0.2,0,0.2,0.1l0.1,0.3c0,0,0.6-0.6,1.6-0.6c1.3,0,1.7,0.8,1.7,2V30
		c0,0.1-0.1,0.2-0.2,0.2H121c-0.1,0-0.2-0.1-0.2-0.2v-2.4c0-0.9-0.4-1.3-1-1.3c-0.8,0-1.4,0.6-1.4,0.6v3c0,0.1-0.1,0.2-0.2,0.2h-0.3
		c-0.1,0-0.2-0.1-0.2-0.2V26H117.6z"/>
	<path class="st1" d="M125.1,25.6c0.7,0,1.2,0.3,1.6,0.8c0.1,0.1,0.1,0.2,0,0.3l-0.2,0.2c-0.2,0.2-0.2,0-0.3,0
		c-0.2-0.3-0.6-0.5-1-0.5c-0.8,0-1.5,0.7-1.5,1.6s0.6,1.6,1.5,1.6c0.7,0,0.9-0.3,1.2-0.6c0.1-0.1,0.2-0.1,0.3,0l0.1,0.1
		c0.1,0.1,0.1,0.2,0.1,0.3c-0.3,0.5-1,0.9-1.7,0.9c-1.2,0-2.3-1-2.3-2.3C122.8,26.7,123.9,25.6,125.1,25.6"/>
	<path class="st1" d="M131.7,27.5c0-0.6-0.6-1.2-1.3-1.2s-1.3,0.5-1.4,1.2H131.7z M130.4,25.6c1.2,0,2,0.9,2,2c0,0.1,0,0.2,0,0.3
		s-0.1,0.2-0.2,0.2H129c0,0.8,0.7,1.5,1.5,1.5c0.5,0,0.9-0.2,1.1-0.3c0.2-0.1,0.2-0.1,0.3,0s0.1,0.2,0.2,0.3c0.1,0.1,0.1,0.2,0,0.3
		c-0.3,0.2-0.9,0.5-1.6,0.5c-1.4,0-2.2-1.1-2.2-2.3C128.3,26.7,129.1,25.6,130.4,25.6"/>
	<path class="st1" d="M133.9,29.6c0-0.1,0.1-0.2,0.2-0.3c0.1-0.1,0.2-0.1,0.3,0c0,0,0.5,0.4,1.1,0.4c0.5,0,0.7-0.2,0.7-0.5
		c0-0.4-0.3-0.6-1-0.9c-0.6-0.3-1.3-0.7-1.3-1.4c0-0.5,0.4-1.2,1.4-1.2c0.6,0,1,0.2,1.2,0.3c0.1,0.1,0.1,0.2,0.1,0.3l-0.1,0.2
		c-0.1,0.1-0.2,0.2-0.3,0.1c0,0-0.5-0.3-0.9-0.3c-0.5,0-0.6,0.3-0.6,0.4c0,0.4,0.4,0.5,0.8,0.8c0.8,0.4,1.5,0.7,1.5,1.5
		c0,0.6-0.6,1.3-1.5,1.3c-0.8,0-1.2-0.3-1.5-0.5C133.9,29.8,133.9,29.7,133.9,29.6"/>
	<path class="st2" d="M28.4,24.4L25.6,23l0,0l4.6-0.1C30,22.9,28.4,24.4,28.4,24.4 M25.6,23L25.6,23L25.6,23L25.6,23z M30.1,22.8
		L30.1,22.8L30.1,22.8L30.1,22.8z"/>
	<path class="st2" d="M26.5,27.4L26.5,27.4L26.5,27.4L26.5,27.4 M26.5,27.4l-1-4.5l0,0l2.1,2.4C27.6,25.4,26.6,27.3,26.5,27.4
		 M25.6,23L25.6,23L25.6,23L25.6,23z"/>
	<polygon class="st3" points="25.6,22.9 25.6,22.9 25.6,22.9 25.6,22.9 	"/>
	<path class="st4" d="M17.8,16.7c0.7-0.3,4.6-1.9,10.2-1.9c1.4,0,2.9,0.1,4.5,0.3c0,0-0.1,0.4-0.4,1.1C30,16,28,15.9,26.2,15.9
		C21.8,15.9,18.6,16.6,17.8,16.7"/>
	<path class="st5" d="M19.7,31.6c-3.1-7.4-2.2-13.7-2-14.6c0,1.1,0.3,7,3,14C20.1,31.3,19.7,31.6,19.7,31.6"/>
	<path class="st6" d="M17.1,31.9c0,0-0.4-0.1-1.1-0.4c1-7.4-0.2-13.2-0.4-14.3C15.9,18.1,18.3,24,17.1,31.9"/>
	<path class="st7" d="M9.4,29.5L9.4,29.5L9.4,29.5L9.4,29.5 M9.4,29.5c-0.1-0.1-1.6-1.7-1.6-1.7L9.3,25l0,0L9.4,29.5z M9.3,24.9
		L9.3,24.9L9.3,24.9L9.3,24.9z"/>
	<path class="st8" d="M1.3,20.1c-0.4-0.6-0.7-1-0.7-1c4.5-1.9,8.5-2.3,11.3-2.3c1.8,0,3,0.2,3.4,0.2C14.2,17.1,8.3,17.3,1.3,20.1"/>
	<path class="st9" d="M6.9,27c0,0-1.9-1.1-2-1.1l4.5-1l0,0L6.9,27z M9.3,24.9L9.3,24.9L9.3,24.9L9.3,24.9z"/>
	<polygon class="st10" points="9.3,24.9 9.3,25 9.3,24.9 	"/>
	<path class="st11" d="M4.8,25.9L4.8,25.9L4.8,25.9z"/>
	<path class="st2" d="M2.7,8.8L2.7,8.8L2.7,8.8L2.7,8.8 M2.7,8.8c0.1-0.1,1.7-1.6,1.7-1.6l2.9,1.4l0,0L2.7,8.8z"/>
	<path class="st12" d="M15.2,14.7c0-0.2,0-0.6-0.1-1.2l0,0l0,0l0,0l0,0c-0.2-2.3-0.8-7.2-3-12.8c0.6-0.4,1-0.7,1-0.7
		C16.3,7.4,15.4,13.7,15.2,14.7"/>
	<path class="st7" d="M7.3,8.7L7.3,8.7L7.3,8.7L7.3,8.7z M7.3,8.7L7.3,8.7L5.2,6.2c0,0,1.1-1.9,1.1-2L7.3,8.7z"/>
	<polygon class="st13" points="7.3,8.7 7.3,8.7 7.3,8.7 	"/>
	<path class="st14" d="M6.3,4.2C9.1,1.8,11.9,0,11.9,0c3.4,8,3.3,14.9,3.3,14.9L7.3,8.7L6.3,4.2z"/>
	<path class="st5" d="M4.8,16.8c-1.4,0-2.9-0.1-4.5-0.3c0,0,0.1-0.4,0.4-1.1c2.1,0.3,4.1,0.4,5.9,0.4c4.5,0,7.6-0.7,8.4-0.8
		C14.4,15.2,10.4,16.8,4.8,16.8"/>
	<path class="st15" d="M2.7,8.8C1.1,12.1,0,15.2,0,15.2c8.6,1.3,15.2-0.4,15.2-0.4L7.3,8.7L2.7,8.8z"/>
	<path class="st15" d="M30.1,22.8c1.6-3.3,2.7-6.4,2.7-6.4c-8.6-1.3-15.2,0.4-15.2,0.4l7.9,6.2L30.1,22.8z"/>
	<path class="st14" d="M26.5,27.4c-2.8,2.4-5.6,4.2-5.6,4.2c-3.4-8-3.3-14.9-3.3-14.9l7.9,6.2L26.5,27.4z"/>
	<path class="st14" d="M9.4,29.5c3.3,1.6,6.4,2.7,6.4,2.7c1.3-8.6-0.4-15.2-0.4-15.2l-6.2,7.9L9.4,29.5z"/>
	<path class="st16" d="M4.8,25.9c-2.4-2.8-4.2-5.6-4.2-5.6C8.6,17,15.5,17,15.5,17l-6.2,7.9L4.8,25.9z"/>
</g>
</svg>
