<?xml version="1.0" encoding="utf-8"?>
<!-- Generator: Adobe Illustrator 23.0.3, SVG Export Plug-In . SVG Version: 6.00 Build 0)  -->
<svg version="1.1" id="Layer_1" xmlns="http://www.w3.org/2000/svg" xmlns:xlink="http://www.w3.org/1999/xlink" x="0px" y="0px"
	 viewBox="0 0 363 95.73" style="enable-background:new 0 0 363 95.73;" xml:space="preserve">
<style type="text/css">
	.st0{fill:#8C1360;}
	.st1{fill:#0072BB;}
	.st2{fill:#6C9CD3;}
	.st3{fill:#1D80C3;}
	.st4{fill:#5A94CE;}
	.st5{fill:#3586C7;}
	.st6{fill:#957485;}
	.st7{fill:#9F8090;}
	.st8{fill:#9F4B78;}
	.st9{fill:#B17091;}
	.st10{fill:#944E73;}
	.st11{fill:#BC85A1;}
	.st12{fill:#846072;}
	.st13{fill:#7B6785;}
	.st14{fill:#663E51;}
</style>
<g>
	<g>
		<path class="st0" d="M111.83,78.04c0-0.26,0.23-0.5,0.49-0.5h0.49c0.21,0,0.39,0.13,0.44,0.37l0.21,0.75c0,0,0.96-1.38,3.1-1.38
			c0.78,0,2.07,0.14,1.81,0.86l-0.31,0.88c-0.13,0.34-0.36,0.34-0.62,0.23c-0.23-0.11-0.62-0.21-1.01-0.21
			c-1.96,0-2.82,1.45-2.82,1.45v6.94c0,0.26-0.23,0.49-0.49,0.49h-0.8c-0.26,0-0.49-0.23-0.49-0.49V78.04"/>
		<path class="st0" d="M124.7,77.28c2.71,0,4.68,2.03,4.68,4.76c0,0.18-0.03,0.52-0.05,0.7c-0.03,0.26-0.23,0.44-0.47,0.44h-7.44
			c0.1,1.74,1.63,3.38,3.46,3.38c1.08,0,1.96-0.41,2.56-0.78c0.36-0.21,0.52-0.34,0.72-0.05c0.15,0.21,0.28,0.39,0.44,0.6
			c0.18,0.23,0.29,0.39-0.1,0.68c-0.62,0.49-2.02,1.19-3.8,1.19c-3.13,0-5.07-2.47-5.07-5.46C119.64,79.8,121.57,77.28,124.7,77.28
			 M127.6,81.72c-0.08-1.51-1.32-2.85-2.89-2.85c-1.74,0-3.08,1.24-3.26,2.85H127.6z M122.01,72.79c-0.1-0.2,0-0.41,0.15-0.49
			l3.88-2.18c0.16-0.1,0.54-0.15,0.67,0.08l0.47,0.93c0.1,0.21,0.05,0.47-0.16,0.55l-4.16,1.74c-0.36,0.16-0.49,0.16-0.59-0.05
			L122.01,72.79z"/>
		<path class="st0" d="M131.58,86.48c0.1-0.16,0.29-0.52,0.36-0.65c0.13-0.21,0.41-0.26,0.7-0.08c0,0,1.11,0.91,2.43,0.91
			c1.06,0,1.68-0.55,1.68-1.25c0-0.91-0.77-1.32-2.27-2.07c-1.37-0.68-2.95-1.59-2.95-3.35c0-1.09,0.88-2.7,3.28-2.7
			c1.35,0,2.38,0.47,2.87,0.81c0.23,0.16,0.31,0.52,0.16,0.81l-0.21,0.41c-0.16,0.29-0.52,0.37-0.75,0.23c0,0-1.11-0.62-2.07-0.62
			c-1.16,0-1.47,0.6-1.47,1.04c0,0.86,0.85,1.25,1.92,1.77c1.78,0.86,3.39,1.66,3.39,3.54c0,1.51-1.45,2.94-3.57,2.94
			c-1.73,0-2.79-0.73-3.36-1.17C131.58,86.92,131.5,86.66,131.58,86.48"/>
		<path class="st0" d="M141.04,71.52c0-0.7,0.54-1.25,1.22-1.25c0.7,0,1.24,0.54,1.24,1.25c0,0.67-0.54,1.22-1.24,1.22
			C141.58,72.74,141.04,72.19,141.04,71.52 M141.4,78.04c0-0.26,0.23-0.5,0.49-0.5h0.8c0.26,0,0.49,0.24,0.49,0.5v9.4
			c0,0.26-0.23,0.49-0.49,0.49h-0.8c-0.26,0-0.49-0.23-0.49-0.49V78.04z"/>
		<path class="st0" d="M151.07,77.28c1.71,0,2.77,0.68,2.77,0.68v-7.71c0-0.26,0.23-0.49,0.49-0.49h0.8c0.26,0,0.49,0.23,0.49,0.49
			v17.2c0,0.26-0.23,0.49-0.49,0.49h-0.55c-0.23,0-0.39-0.18-0.44-0.41l-0.16-0.7c0,0-1.24,1.38-3.18,1.38c-2.64,0-4.7-2.5-4.7-5.48
			C146.11,79.68,147.97,77.28,151.07,77.28 M150.99,86.56c1.86,0,2.82-1.71,2.82-1.71v-5.2c0,0-1.08-0.62-2.51-0.62
			c-2.25,0-3.39,1.64-3.39,3.72C147.92,84.76,149.11,86.56,150.99,86.56z"/>
		<path class="st0" d="M163.64,77.28c2.71,0,4.68,2.03,4.68,4.76c0,0.18-0.03,0.52-0.05,0.7c-0.03,0.26-0.23,0.44-0.47,0.44h-7.45
			c0.1,1.74,1.63,3.38,3.46,3.38c1.09,0,1.96-0.41,2.56-0.78c0.36-0.21,0.52-0.34,0.72-0.05c0.15,0.21,0.28,0.39,0.44,0.6
			c0.18,0.23,0.28,0.39-0.1,0.68c-0.62,0.49-2.02,1.19-3.8,1.19c-3.13,0-5.07-2.47-5.07-5.46C158.57,79.8,160.51,77.28,163.64,77.28
			 M166.53,81.72c-0.08-1.51-1.32-2.85-2.89-2.85c-1.73,0-3.08,1.24-3.26,2.85H166.53z"/>
		<path class="st0" d="M171.13,78.04c0-0.26,0.23-0.5,0.49-0.5h0.49c0.23,0,0.36,0.11,0.41,0.31l0.23,0.81c0,0,1.47-1.38,3.62-1.38
			c3,0,4.01,1.98,4.01,4.68v5.48c0,0.26-0.23,0.49-0.49,0.49h-0.83c-0.26,0-0.49-0.23-0.49-0.49v-5.48c0-1.98-0.88-2.94-2.33-2.94
			c-1.94,0-3.33,1.48-3.33,1.48v6.94c0,0.26-0.23,0.49-0.49,0.49h-0.8c-0.26,0-0.49-0.23-0.49-0.49V78.04"/>
		<path class="st0" d="M188.48,77.28c1.55,0,2.77,0.63,3.7,1.82c0.18,0.23,0.13,0.54-0.1,0.73l-0.49,0.41
			c-0.39,0.36-0.52,0.11-0.75-0.1c-0.52-0.6-1.37-1.09-2.38-1.09c-1.94,0-3.44,1.61-3.44,3.69c0,2.08,1.47,3.74,3.41,3.74
			c1.55,0,2.15-0.78,2.74-1.35c0.31-0.31,0.49-0.26,0.78-0.05l0.29,0.21c0.26,0.18,0.34,0.47,0.18,0.73
			c-0.78,1.25-2.2,2.18-3.96,2.18c-2.87,0-5.3-2.32-5.3-5.43C183.15,79.7,185.66,77.28,188.48,77.28"/>
		<path class="st0" d="M199.65,77.28c2.71,0,4.68,2.03,4.68,4.76c0,0.18-0.03,0.52-0.05,0.7c-0.03,0.26-0.23,0.44-0.47,0.44h-7.45
			c0.1,1.74,1.63,3.38,3.46,3.38c1.09,0,1.97-0.41,2.56-0.78c0.36-0.21,0.52-0.34,0.72-0.05c0.15,0.21,0.28,0.39,0.44,0.6
			c0.18,0.23,0.29,0.39-0.1,0.68c-0.62,0.49-2.02,1.19-3.8,1.19c-3.13,0-5.07-2.47-5.07-5.46C194.58,79.8,196.52,77.28,199.65,77.28
			 M202.54,81.72c-0.08-1.51-1.32-2.85-2.89-2.85c-1.73,0-3.08,1.24-3.26,2.85H202.54z"/>
		<path class="st0" d="M206.52,86.48c0.1-0.16,0.28-0.52,0.36-0.65c0.13-0.21,0.41-0.26,0.7-0.08c0,0,1.11,0.91,2.43,0.91
			c1.06,0,1.68-0.55,1.68-1.25c0-0.91-0.77-1.32-2.27-2.07c-1.37-0.68-2.95-1.59-2.95-3.35c0-1.09,0.88-2.7,3.28-2.7
			c1.34,0,2.38,0.47,2.87,0.81c0.23,0.16,0.31,0.52,0.15,0.81l-0.21,0.41c-0.15,0.29-0.51,0.37-0.75,0.23c0,0-1.11-0.62-2.07-0.62
			c-1.16,0-1.47,0.6-1.47,1.04c0,0.86,0.85,1.25,1.91,1.77c1.78,0.86,3.39,1.66,3.39,3.54c0,1.51-1.45,2.94-3.57,2.94
			c-1.73,0-2.79-0.73-3.36-1.17C206.52,86.92,206.44,86.66,206.52,86.48"/>
		<path class="st0" d="M223.89,95.23c0,0.26-0.23,0.5-0.49,0.5h-0.8c-0.26,0-0.49-0.23-0.49-0.5V78.04c0-0.26,0.23-0.5,0.49-0.5
			h0.54c0.23,0,0.31,0.08,0.41,0.34l0.18,0.49c0,0,1.14-1.1,3-1.1c2.82,0,4.89,2.5,4.89,5.48c0,3.04-2.12,5.43-4.97,5.43
			c-1.7,0-2.77-0.86-2.77-0.86V95.23 M226.43,86.45c1.99,0,3.39-1.64,3.39-3.72c0-2.03-1.19-3.82-3.26-3.82
			c-1.68,0-2.64,1.27-2.64,1.27v5.35C223.92,85.54,225,86.45,226.43,86.45z"/>
		<path class="st0" d="M238.94,77.28c2.87,0,5.14,2.5,5.14,5.43c0,2.99-2.27,5.48-5.14,5.48c-2.87,0-5.14-2.5-5.14-5.48
			C233.79,79.78,236.07,77.28,238.94,77.28 M238.94,86.51c1.89,0,3.36-1.69,3.36-3.8c0-2.05-1.47-3.72-3.36-3.72
			c-1.89,0-3.36,1.66-3.36,3.72C235.58,84.82,237.05,86.51,238.94,86.51z"/>
		<path class="st0" d="M246.87,78.04c0-0.26,0.23-0.5,0.49-0.5h0.83c0.26,0,0.49,0.24,0.49,0.5v5.48c0,1.98,0.88,2.94,2.33,2.94
			c1.97,0,3.08-1.48,3.08-1.48c0-0.57,0-1.17,0-6.94c0-0.26,0.23-0.5,0.49-0.5h0.8c0.26,0,0.49,0.24,0.49,0.5v9.4
			c0,0.26-0.23,0.49-0.49,0.49h-0.49c-0.29,0-0.39-0.18-0.47-0.44l-0.18-0.68c0,0-1.22,1.38-3.36,1.38c-3,0-4.01-1.95-4.01-4.7
			V78.04"/>
		<path class="st0" d="M259.54,78.04c0-0.26,0.23-0.5,0.49-0.5h0.49c0.21,0,0.39,0.13,0.44,0.37l0.21,0.75c0,0,0.96-1.38,3.1-1.38
			c0.77,0,2.07,0.14,1.81,0.86l-0.31,0.88c-0.13,0.34-0.36,0.34-0.62,0.23c-0.23-0.11-0.62-0.21-1.01-0.21
			c-1.96,0-2.82,1.45-2.82,1.45v6.94c0,0.26-0.23,0.49-0.49,0.49h-0.8c-0.26,0-0.49-0.23-0.49-0.49V78.04"/>
		<path class="st0" d="M273.92,78.04c0-0.26,0.23-0.5,0.49-0.5h0.49c0.21,0,0.39,0.13,0.44,0.37l0.21,0.75c0,0,0.96-1.38,3.1-1.38
			c0.78,0,2.07,0.14,1.81,0.86l-0.31,0.88c-0.13,0.34-0.36,0.34-0.62,0.23c-0.23-0.11-0.62-0.21-1.01-0.21
			c-1.97,0-2.82,1.45-2.82,1.45v6.94c0,0.26-0.23,0.49-0.49,0.49h-0.8c-0.26,0-0.49-0.23-0.49-0.49V78.04"/>
		<path class="st0" d="M286.79,77.28c2.72,0,4.68,2.03,4.68,4.76c0,0.18-0.02,0.52-0.05,0.7c-0.03,0.26-0.23,0.44-0.47,0.44h-7.44
			c0.1,1.74,1.63,3.38,3.46,3.38c1.08,0,1.96-0.41,2.56-0.78c0.36-0.21,0.52-0.34,0.72-0.05c0.15,0.21,0.28,0.39,0.44,0.6
			c0.18,0.23,0.28,0.39-0.11,0.68c-0.62,0.49-2.02,1.19-3.8,1.19c-3.13,0-5.07-2.47-5.07-5.46
			C281.72,79.8,283.66,77.28,286.79,77.28 M289.69,81.72c-0.08-1.51-1.32-2.85-2.89-2.85c-1.73,0-3.08,1.24-3.26,2.85H289.69z"/>
		<path class="st0" d="M294.96,79.1h-1.32c-0.29,0-0.49-0.23-0.49-0.49v-0.57c0-0.29,0.21-0.5,0.49-0.5h1.32v-2.88
			c0-0.26,0.23-0.5,0.49-0.5l0.83-0.05c0.26,0,0.46,0.23,0.46,0.49v2.93h3c0.28,0,0.49,0.21,0.49,0.5v0.57
			c0,0.26-0.21,0.49-0.49,0.49h-3v6.08c0,1.04,0.26,1.25,0.85,1.25c0.65,0,1.55-0.39,1.89-0.57c0.39-0.21,0.49-0.05,0.62,0.15
			l0.39,0.65c0.18,0.31,0.1,0.47-0.18,0.65c-0.36,0.23-1.76,0.88-2.97,0.88c-2.07,0-2.38-1.25-2.38-2.86V79.1"/>
		<path class="st0" d="M303.13,78.04c0-0.26,0.23-0.5,0.49-0.5h0.49c0.21,0,0.39,0.13,0.44,0.37l0.21,0.75c0,0,0.96-1.38,3.1-1.38
			c0.78,0,2.07,0.14,1.81,0.86l-0.31,0.88c-0.13,0.34-0.36,0.34-0.62,0.23c-0.23-0.11-0.62-0.21-1.01-0.21
			c-1.96,0-2.82,1.45-2.82,1.45v6.94c0,0.26-0.23,0.49-0.49,0.49h-0.8c-0.26,0-0.49-0.23-0.49-0.49V78.04"/>
		<path class="st0" d="M315.15,81.34c1.11,0,2.2,0.34,2.2,0.34c0.03-1.92-0.21-2.8-1.68-2.8c-1.42,0-2.64,0.39-3.1,0.57
			c-0.26,0.1-0.41-0.03-0.49-0.26l-0.21-0.65c-0.11-0.31,0.05-0.47,0.28-0.57c0.15-0.08,1.65-0.68,3.59-0.68
			c2.64,0,3.28,1.35,3.28,4.39v5.77c0,0.26-0.23,0.49-0.49,0.49h-0.49c-0.28,0-0.36-0.15-0.44-0.39l-0.21-0.7
			c-0.55,0.55-1.6,1.35-3.21,1.35c-1.81,0-3.18-1.33-3.18-3.4C311.01,82.82,312.49,81.34,315.15,81.34 M314.48,86.63
			c1.29,0,2.4-0.8,2.85-1.45v-2.05c-0.31-0.18-1.04-0.41-2.18-0.41c-1.45,0-2.48,0.73-2.48,2.08
			C312.67,85.83,313.36,86.63,314.48,86.63z"/>
		<path class="st0" d="M322.26,71.52c0-0.7,0.54-1.25,1.21-1.25c0.7,0,1.24,0.54,1.24,1.25c0,0.67-0.54,1.22-1.24,1.22
			C322.8,72.74,322.26,72.19,322.26,71.52 M322.62,78.04c0-0.26,0.23-0.5,0.49-0.5h0.8c0.26,0,0.49,0.24,0.49,0.5v9.4
			c0,0.26-0.23,0.49-0.49,0.49h-0.8c-0.26,0-0.49-0.23-0.49-0.49V78.04z"/>
		<path class="st0" d="M328.75,79.1h-1.32c-0.28,0-0.49-0.23-0.49-0.49v-0.57c0-0.29,0.21-0.5,0.49-0.5h1.32v-2.88
			c0-0.26,0.23-0.5,0.49-0.5l0.83-0.05c0.26,0,0.46,0.23,0.46,0.49v2.93h3c0.29,0,0.49,0.21,0.49,0.5v0.57
			c0,0.26-0.21,0.49-0.49,0.49h-3v6.08c0,1.04,0.26,1.25,0.85,1.25c0.65,0,1.55-0.39,1.89-0.57c0.39-0.21,0.49-0.05,0.62,0.15
			l0.39,0.65c0.18,0.31,0.1,0.47-0.18,0.65c-0.36,0.23-1.76,0.88-2.97,0.88c-2.07,0-2.38-1.25-2.38-2.86V79.1"/>
		<path class="st0" d="M341.23,77.28c2.72,0,4.68,2.03,4.68,4.76c0,0.18-0.03,0.52-0.05,0.7c-0.03,0.26-0.24,0.44-0.47,0.44h-7.44
			c0.1,1.74,1.63,3.38,3.46,3.38c1.09,0,1.97-0.41,2.56-0.78c0.36-0.21,0.52-0.34,0.72-0.05c0.15,0.21,0.28,0.39,0.44,0.6
			c0.18,0.23,0.29,0.39-0.1,0.68c-0.62,0.49-2.02,1.19-3.8,1.19c-3.13,0-5.07-2.47-5.07-5.46C336.17,79.8,338.11,77.28,341.23,77.28
			 M344.13,81.72c-0.08-1.51-1.32-2.85-2.9-2.85c-1.73,0-3.08,1.24-3.25,2.85H344.13z M338.55,72.79c-0.1-0.2,0-0.41,0.16-0.49
			l3.88-2.18c0.16-0.1,0.54-0.15,0.67,0.08l0.47,0.93c0.1,0.21,0.05,0.47-0.16,0.55l-4.16,1.74c-0.36,0.16-0.49,0.16-0.59-0.05
			L338.55,72.79z"/>
		<path class="st0" d="M348.11,86.48c0.1-0.16,0.28-0.52,0.36-0.65c0.13-0.21,0.41-0.26,0.7-0.08c0,0,1.11,0.91,2.43,0.91
			c1.06,0,1.68-0.55,1.68-1.25c0-0.91-0.78-1.32-2.27-2.07c-1.37-0.68-2.95-1.59-2.95-3.35c0-1.09,0.88-2.7,3.28-2.7
			c1.35,0,2.38,0.47,2.87,0.81c0.23,0.16,0.31,0.52,0.16,0.81l-0.21,0.41c-0.16,0.29-0.52,0.37-0.75,0.23c0,0-1.11-0.62-2.07-0.62
			c-1.16,0-1.47,0.6-1.47,1.04c0,0.86,0.85,1.25,1.91,1.77c1.79,0.86,3.39,1.66,3.39,3.54c0,1.51-1.45,2.94-3.57,2.94
			c-1.73,0-2.79-0.73-3.36-1.17C348.11,86.92,348.03,86.66,348.11,86.48"/>
	</g>
	<path class="st1" d="M123.71,23.46c4.53,0,7.8,1.53,10.85,4.17c0.4,0.36,0.4,0.9,0.05,1.25l-1.97,2.02c-0.31,0.4-0.72,0.4-1.12,0
		c-2.11-1.84-4.98-3-7.76-3c-6.41,0-11.25,5.38-11.25,11.65c0,6.27,4.88,11.61,11.29,11.61c3.27,0,5.56-1.3,7.71-2.96
		c0.4-0.32,0.81-0.27,1.08-0.05l2.06,2.02c0.36,0.31,0.27,0.9-0.04,1.21c-3.05,2.96-6.9,4.35-10.89,4.35
		c-8.96,0-16.18-7.12-16.18-16.09C107.54,30.68,114.75,23.46,123.71,23.46"/>
	<path class="st1" d="M139.59,24.76c0-0.45,0.4-0.85,0.85-0.85h2.96c0.49,0,0.85,0.4,0.85,0.85v12.51h16.4V24.76
		c0-0.45,0.36-0.85,0.85-0.85h2.96c0.45,0,0.85,0.4,0.85,0.85v29.67c0,0.45-0.4,0.85-0.85,0.85h-2.96c-0.49,0-0.85-0.4-0.85-0.85
		V41.48h-16.4v12.95c0,0.45-0.36,0.85-0.85,0.85h-2.96c-0.45,0-0.85-0.4-0.85-0.85V24.76"/>
	<path class="st1" d="M169.79,54.12l13.76-30.16c0.13-0.27,0.54-0.49,0.76-0.49h0.45c0.22,0,0.63,0.23,0.76,0.49l13.67,30.16
		c0.27,0.58-0.09,1.17-0.76,1.17h-2.82c-0.54,0-0.85-0.27-1.03-0.67l-2.78-6.14h-14.66c-0.89,2.06-1.84,4.08-2.73,6.14
		c-0.14,0.31-0.5,0.67-1.03,0.67h-2.82C169.88,55.28,169.52,54.7,169.79,54.12 M190.09,44.61l-5.51-12.28h-0.22l-5.47,12.28H190.09z
		"/>
	<path class="st1" d="M203.68,24.76c0-0.45,0.36-0.85,0.85-0.85h12.19c5.38,0,9.77,4.26,9.77,9.59c0,4.13-2.73,7.53-6.64,9.1
		l6.14,11.38c0.32,0.58,0,1.3-0.76,1.3h-3.5c-0.36,0-0.63-0.22-0.72-0.4L215.06,43h-6.77v11.43c0,0.45-0.4,0.85-0.85,0.85h-2.91
		c-0.49,0-0.85-0.4-0.85-0.85V24.76 M216.36,39.15c2.91,0,5.47-2.47,5.47-5.56c0-2.91-2.55-5.33-5.47-5.33h-7.98v10.89H216.36z"/>
	<path class="st1" d="M237.78,28.12h-7.3c-0.49,0-0.85-0.4-0.85-0.85v-2.51c0-0.45,0.36-0.85,0.85-0.85h19.27
		c0.49,0,0.85,0.4,0.85,0.85v2.51c0,0.45-0.36,0.85-0.85,0.85h-7.31v26.31c0,0.45-0.4,0.85-0.85,0.85h-2.96
		c-0.45,0-0.85-0.4-0.85-0.85V28.12"/>
	<path class="st0" d="M253.93,25.66c-0.31-1.08,0-1.77,1.16-1.77h2.39c0.69,0,1.23,0.38,1.39,0.85l5.62,20.33h0.08l8.7-21.18
		c0.15-0.38,0.62-0.77,1.31-0.77h0.38c0.69,0,1.15,0.39,1.31,0.77l8.62,21.26h0.08l5.54-20.41c0.16-0.46,0.69-0.85,1.31-0.85h2.39
		c1.16,0,1.47,0.69,1.16,1.77l-8.39,29.03c-0.16,0.46-0.69,0.77-1.31,0.77h-0.38c-0.69,0-1.16-0.39-1.31-0.77l-9.39-23.1l-9.09,23.1
		c-0.15,0.39-0.62,0.77-1.31,0.77h-0.38c-0.69,0-1.16-0.31-1.31-0.77L253.93,25.66"/>
	<path class="st0" d="M314.1,23.11c8.09,0,13.94,6.01,13.94,14.09c0,0.54-0.08,1.54-0.15,2.08c-0.08,0.77-0.69,1.31-1.39,1.31
		h-22.18c0.31,5.16,4.85,10.01,10.32,10.01c3.23,0,5.86-1.23,7.63-2.31c1.08-0.62,1.54-1,2.15-0.15c0.46,0.62,0.85,1.16,1.31,1.77
		c0.54,0.69,0.85,1.16-0.31,2c-1.85,1.47-6.01,3.54-11.32,3.54c-9.32,0-15.1-7.32-15.1-16.17C299,30.58,304.78,23.11,314.1,23.11
		 M322.72,36.28c-0.23-4.47-3.93-8.47-8.63-8.47c-5.16,0-9.17,3.7-9.7,8.47H322.72z"/>
	<path class="st0" d="M334.53,12.41c0-0.78,0.71-1.49,1.49-1.49h2.43c0.78,0,1.49,0.7,1.49,1.49v41.32c0,0.78-0.7,1.49-1.49,1.49
		h-2.43c-0.78,0-1.49-0.71-1.49-1.49V12.41"/>
	<path class="st0" d="M348.57,12.41c0-0.78,0.7-1.49,1.49-1.49h2.43c0.78,0,1.49,0.7,1.49,1.49v41.32c0,0.78-0.7,1.49-1.49,1.49
		h-2.43c-0.78,0-1.49-0.71-1.49-1.49V12.41"/>
</g>
<g>
	<path class="st2" d="M86.1,65.21c0.01-0.01,0.02-0.01,0.02-0.01c0,0,0,0,0,0.01H86.1 M73,65.58l-0.03-0.02H73L73,65.58
		 M81.21,69.66l-8.15-4.05l-0.04-0.04l13.08-0.36C85.74,65.43,81.21,69.66,81.21,69.66"/>
	<path class="st2" d="M73,65.56l-0.01-0.03l0.02,0.03L73,65.56 M75.82,78.36L73,65.58l0.05,0.03l5.91,6.93
		C78.96,72.53,75.95,77.95,75.82,78.36 M75.82,78.38c0,0,0-0.01,0-0.02L75.82,78.38C75.83,78.38,75.82,78.38,75.82,78.38"/>
	<polyline class="st3" points="73.05,65.6 73,65.58 73,65.56 73.02,65.56 73.05,65.6 	"/>
	<g>
		<path class="st4" d="M50.89,47.8c2.01-0.87,13.26-5.42,29.23-5.42c3.99,0,8.27,0.29,12.78,0.98c0,0-0.42,1.2-1.18,3.18
			c-6.05-0.82-11.73-1.13-16.83-1.13C62.17,45.41,53.06,47.3,50.89,47.8"/>
		<path class="st5" d="M56.27,90.24c-8.84-21.04-6.3-39.14-5.85-41.84c0.06,3.12,0.75,20.12,8.65,39.93
			C57.33,89.54,56.27,90.24,56.27,90.24"/>
		<path class="st6" d="M48.76,91.13c0,0-1.2-0.42-3.17-1.18c2.87-21.14-0.57-37.8-1.27-40.83C45.4,51.62,52.25,68.57,48.76,91.13"/>
		<path class="st7" d="M26.54,71.24l0.02-0.03v0.03L26.54,71.24 M26.91,84.33c-0.23-0.36-4.45-4.89-4.45-4.89l4.05-8.15l0.04-0.04
			L26.91,84.33 M26.92,84.35C26.92,84.35,26.92,84.35,26.92,84.35l-0.01-0.02C26.92,84.35,26.93,84.35,26.92,84.35"/>
		<path class="st8" d="M3.79,57.3c-1.21-1.73-1.91-2.8-1.91-2.8c12.74-5.35,24.4-6.53,32.21-6.53c5.1,0,8.57,0.5,9.63,0.68
			C40.62,48.71,23.61,49.4,3.79,57.3"/>
		<path class="st9" d="M26.56,71.25v-0.02l0.03-0.01L26.56,71.25 M19.59,77.19c0,0-5.42-3-5.82-3.13l12.78-2.82l-0.03,0.05
			L19.59,77.19"/>
		<polyline class="st10" points="26.52,71.29 26.54,71.24 26.56,71.24 26.56,71.25 26.52,71.29 		"/>
		<path class="st11" d="M13.74,74.06C13.74,74.06,13.74,74.05,13.74,74.06c0-0.01,0.01-0.01,0.02,0L13.74,74.06"/>
		<path class="st2" d="M7.79,25.15c0.36-0.23,4.89-4.45,4.89-4.45l8.15,4.05l0.04,0.04L7.79,25.15 M7.77,25.16
			C7.77,25.16,7.77,25.15,7.77,25.16l0.02-0.01C7.78,25.15,7.77,25.16,7.77,25.16"/>
		<path class="st12" d="M43.47,41.96c-0.01-0.61-0.05-1.75-0.16-3.34v0c0-0.01,0-0.02,0-0.03v0c0-0.01,0-0.01,0-0.01
			c-0.45-6.55-2.15-20.65-8.49-36.55c1.73-1.21,2.8-1.91,2.8-1.91C46.46,21.16,43.92,39.27,43.47,41.96"/>
		<path class="st7" d="M20.88,24.78l-0.05-0.03l-5.91-6.93c0,0,3-5.42,3.13-5.82L20.88,24.78 M20.89,24.82l-0.02-0.03l0.02,0
			L20.89,24.82"/>
		<polyline class="st13" points="20.87,24.79 20.83,24.75 20.88,24.78 20.89,24.79 20.87,24.79 		"/>
		<path class="st14" d="M18.06,11.98C26,5.25,33.99,0,33.99,0c9.59,22.82,9.48,42.46,9.48,42.46L20.89,24.82L18.06,11.98"/>
		<path class="st5" d="M13.77,47.98c-3.99,0-8.28-0.29-12.78-0.98c0,0,0.42-1.2,1.18-3.18c6.05,0.82,11.73,1.13,16.83,1.13
			c12.73,0,21.84-1.9,24.01-2.4C41,43.42,29.75,47.98,13.77,47.98"/>
		<g>
			<path class="st1" d="M7.77,25.15C3.16,34.48,0,43.51,0,43.51c24.46,3.78,43.5-1.07,43.5-1.07L20.91,24.79L7.77,25.15"/>
		</g>
		<path class="st1" d="M86.12,65.21c4.61-9.33,7.77-18.36,7.77-18.36c-24.46-3.78-43.5,1.07-43.5,1.07l22.58,17.64L86.12,65.21"/>
		<path class="st14" d="M75.83,78.38c-7.94,6.73-15.93,11.98-15.93,11.98c-9.59-22.82-9.48-42.46-9.48-42.46l22.58,17.64
			L75.83,78.38"/>
		<path class="st14" d="M26.91,84.35c9.33,4.61,18.36,7.77,18.36,7.77c3.78-24.46-1.07-43.5-1.07-43.5L26.56,71.21L26.91,84.35"/>
		<path class="st0" d="M13.74,74.06C7.02,66.12,1.77,58.13,1.77,58.13c22.82-9.59,42.46-9.48,42.46-9.48L26.59,71.23L13.74,74.06"/>
	</g>
</g>
<g>
	<g>
		<g>
			<path class="st0" d="M357.42,10.98c0.01-0.03,0.04-0.06,0.07-0.06h0.06c0.03,0,0.06,0.02,0.07,0.04l0.83,2.05h0.02l0.83-2.05
				c0.01-0.02,0.04-0.04,0.07-0.04h0.06c0.03,0,0.07,0.03,0.07,0.06l0.49,2.69c0.01,0.06-0.02,0.09-0.07,0.09h-0.26
				c-0.04,0-0.07-0.03-0.08-0.06l-0.3-1.79c0,0-0.01,0-0.01,0l-0.72,1.84c-0.01,0.02-0.03,0.05-0.07,0.05h-0.07
				c-0.03,0-0.06-0.02-0.07-0.05l-0.72-1.84c-0.01,0-0.01,0-0.02,0l-0.29,1.79c0,0.03-0.04,0.06-0.07,0.06H357
				c-0.06,0-0.08-0.04-0.07-0.09L357.42,10.98z"/>
			<path class="st0" d="M360.6,11.03c0-0.04,0.03-0.07,0.07-0.07h0.92c0.77,0,1.41,0.63,1.41,1.4c0,0.78-0.63,1.4-1.41,1.4h-0.92
				c-0.04,0-0.07-0.04-0.07-0.07V11.03z M361.54,13.38c0.59,0,1.02-0.43,1.02-1.03c0-0.59-0.43-1.02-1.02-1.02h-0.53v2.04H361.54z"
				/>
		</g>
	</g>
</g>
</svg>
