<?xml version="1.0" encoding="utf-8"?>
<!-- Generator: Adobe Illustrator 22.1.0, SVG Export Plug-In . SVG Version: 6.00 Build 0)  -->
<svg version="1.1" id="Layer_1" xmlns="http://www.w3.org/2000/svg" xmlns:xlink="http://www.w3.org/1999/xlink" x="0px" y="0px"
	 viewBox="0 0 137 35.3" style="enable-background:new 0 0 137 35.3;" xml:space="preserve">
<style type="text/css">
	.st0{fill:#FFFFFF;}
</style>
<path class="st0" d="M45.2,8c1.5,0,2.7,0.5,3.7,1.4c0.2,0.1,0.2,0.3,0,0.4l-0.7,0.7c-0.1,0.2-0.3,0.2-0.4,0c-0.7-0.6-1.7-1-2.7-1
	c-2.1,0-3.8,1.9-3.8,4s1.7,3.9,3.8,3.9c1.2,0,1.9-0.4,2.6-1c0.2-0.1,0.3-0.1,0.4,0l0.7,0.7c0.1,0.1,0.1,0.3,0,0.4
	c-1.1,1-2.3,1.5-3.8,1.5c-3,0-5.5-2.4-5.5-5.5S42.2,8,45.2,8"/>
<path class="st0" d="M51.1,8.4c0-0.2,0.2-0.3,0.3-0.3h1.1c0.2,0,0.3,0.2,0.3,0.3v4.3h5.6V8.4c0-0.2,0.1-0.3,0.3-0.3h1
	c0.2,0,0.3,0.2,0.3,0.3v10.1c0,0.2-0.2,0.3-0.3,0.3h-1c-0.2,0-0.3-0.2-0.3-0.3v-4.4h-5.6v4.4c0,0.2-0.1,0.3-0.3,0.3h-1
	c-0.2,0-0.3-0.2-0.3-0.3L51.1,8.4L51.1,8.4z"/>
<path class="st0" d="M68.8,15.2L66.9,11h-0.1L65,15.2H68.8z M61.9,18.5l4.7-10.3C66.8,8.1,66.9,8,66.9,8h0.2c0.1,0,0.2,0.1,0.3,0.2
	L72,18.5c0.1,0.2,0,0.4-0.3,0.4h-1c-0.2,0-0.3-0.1-0.4-0.3l-1-2.1h-5c-0.3,0.7-0.6,1.4-0.9,2.1c-0.1,0.1-0.2,0.3-0.4,0.3h-1
	C61.9,18.9,61.8,18.6,61.9,18.5"/>
<path class="st0" d="M78.3,13.4c1,0,1.9-0.8,1.9-1.9c0-1-0.9-1.8-1.9-1.8h-2.7v3.8L78.3,13.4L78.3,13.4z M73.9,8.4
	c0-0.2,0.1-0.3,0.3-0.3h4.2c1.9,0,3.3,1.4,3.3,3.3c0,1.4-0.9,2.6-2.2,3.1l2.1,3.8c0.1,0.2,0,0.4-0.3,0.4h-1.2
	c-0.1,0-0.2-0.1-0.3-0.2l-2-4h-2.3v3.9c0,0.2-0.2,0.3-0.3,0.3h-1c-0.2,0-0.3-0.2-0.3-0.3L73.9,8.4L73.9,8.4z"/>
<path class="st0" d="M86.1,9.6h-2.5c-0.2,0-0.3-0.2-0.3-0.3V8.4c0-0.2,0.1-0.3,0.3-0.3h6.6c0.2,0,0.3,0.2,0.3,0.3v0.9
	c0,0.2-0.1,0.3-0.3,0.3h-2.5v9c0,0.2-0.2,0.3-0.3,0.3h-1c-0.2,0-0.3-0.2-0.3-0.3L86.1,9.6L86.1,9.6z"/>
<path class="st0" d="M92.5,8.7c-0.1-0.4,0-0.6,0.4-0.6h0.8c0.3,0,0.4,0.1,0.4,0.3l1.9,7l0,0l3-7.2C99,8,99.1,7.8,99.4,7.8h0.1
	c0.3,0,0.4,0.1,0.4,0.3l3,7.2l0,0l1.9-7c0.1-0.2,0.3-0.3,0.4-0.3h0.8c0.4,0,0.5,0.3,0.4,0.6l-2.9,9.9c-0.1,0.2-0.3,0.3-0.4,0.3H103
	c-0.3,0-0.4-0.1-0.4-0.3l-3.2-7.9l-3.1,7.9c-0.1,0.1-0.2,0.3-0.4,0.3h-0.1c-0.3,0-0.4-0.1-0.4-0.3L92.5,8.7z"/>
<path class="st0" d="M117,12.4c-0.1-1.5-1.3-2.9-3-2.9c-1.8,0-3.1,1.3-3.3,2.9H117z M114.1,7.9c2.8,0,4.7,2.1,4.7,4.8
	c0,0.2,0,0.5-0.1,0.7c0,0.3-0.3,0.4-0.4,0.4h-7.6c0.1,1.8,1.7,3.4,3.5,3.4c1.1,0,2-0.4,2.6-0.8c0.4-0.2,0.5-0.4,0.7-0.1
	c0.2,0.2,0.3,0.4,0.4,0.6c0.2,0.3,0.3,0.4-0.1,0.7c-0.6,0.5-2.1,1.3-3.8,1.3c-3.2,0-5.2-2.5-5.2-5.5C108.9,10.4,110.8,7.9,114.1,7.9
	"/>
<path class="st0" d="M121.5,4.2c0-0.3,0.3-0.5,0.5-0.5h0.8c0.3,0,0.5,0.3,0.5,0.5v14.1c0,0.3-0.3,0.5-0.5,0.5H122
	c-0.3,0-0.5-0.3-0.5-0.5V4.2z"/>
<path class="st0" d="M126.3,4.2c0-0.3,0.3-0.5,0.5-0.5h0.8c0.3,0,0.5,0.3,0.5,0.5v14.1c0,0.3-0.3,0.5-0.5,0.5h-0.8
	c-0.3,0-0.5-0.3-0.5-0.5V4.2z"/>
<path class="st0" d="M40.8,26.3c0-0.1,0.1-0.2,0.2-0.2h0.2c0.1,0,0.2,0.1,0.2,0.2l0.1,0.3c0,0,0.4-0.5,1.2-0.5
	c0.3,0,0.8,0.1,0.7,0.4l-0.1,0.4c-0.1,0.1-0.2,0.1-0.3,0.1s-0.3-0.1-0.4-0.1c-0.8,0-1.1,0.5-1.1,0.5V30c0,0.1-0.1,0.2-0.2,0.2H41
	c-0.1,0-0.2-0.1-0.2-0.2L40.8,26.3L40.8,26.3z"/>
<path class="st0" d="M47.4,27.7c0-0.5-0.5-1.1-1.2-1.1c-0.6,0-1.2,0.4-1.3,1.1H47.4z M46.2,26c1.1,0,1.8,0.8,1.8,1.8
	c0,0.1,0,0.2,0,0.3c0,0.1-0.1,0.2-0.2,0.2H45c0,0.7,0.6,1.3,1.3,1.3c0.4,0,0.8-0.2,1-0.3c0.2-0.1,0.2-0.1,0.3,0
	c0.1,0.1,0.1,0.2,0.2,0.3s0.1,0.2,0,0.3c-0.3,0.2-0.8,0.4-1.4,0.4c-1.3,0-2-1-2-2.1C44.2,26.9,45,26,46.2,26"/>
<path class="st0" d="M49.4,26.7h-0.5c-0.1,0-0.2-0.1-0.2-0.2v-0.2c0-0.1,0.1-0.2,0.2-0.2h0.5v-1.1c0-0.1,0.1-0.2,0.2-0.2H50
	c0.1,0,0.2,0.1,0.2,0.2v1.2h1.2c0.1,0,0.2,0.1,0.2,0.2v0.2c0,0.1-0.1,0.2-0.2,0.2h-1.2V29c0,0.4,0.1,0.4,0.4,0.4
	c0.3,0,0.6-0.2,0.7-0.2c0.2-0.1,0.2,0,0.3,0.1l0.2,0.3c0.1,0.1,0,0.2-0.1,0.3c-0.2,0.1-0.7,0.4-1.2,0.4c-0.8,0-0.9-0.4-0.9-1.1
	L49.4,26.7L49.4,26.7z"/>
<path class="st0" d="M52.6,26.3c0-0.1,0.1-0.2,0.2-0.2H53c0.1,0,0.2,0.1,0.2,0.2v3.6c0,0.1-0.1,0.2-0.2,0.2h-0.3
	c-0.1,0-0.2-0.1-0.2-0.2V26.3z M52.5,23.8c0-0.3,0.2-0.4,0.4-0.4s0.4,0.2,0.4,0.4s-0.2,0.4-0.4,0.4S52.5,24,52.5,23.8"/>
<path class="st0" d="M54.7,26.3c0-0.1,0.1-0.2,0.2-0.2h0.2c0.1,0,0.2,0.1,0.2,0.2l0.1,0.3c0,0,0.4-0.5,1.2-0.5
	c0.3,0,0.8,0.1,0.7,0.4l-0.1,0.4c-0.1,0.1-0.2,0.1-0.3,0.1s-0.3-0.1-0.4-0.1c-0.8,0-1.1,0.5-1.1,0.5V30c0,0.1-0.1,0.2-0.2,0.2H55
	c-0.1,0-0.2-0.1-0.2-0.2L54.7,26.3L54.7,26.3z"/>
<path class="st0" d="M61.2,27.7c0-0.5-0.5-1.1-1.2-1.1s-1.2,0.4-1.3,1.1H61.2z M60.2,26c1.1,0,1.8,0.8,1.8,1.8c0,0.1,0,0.2,0,0.3
	c0,0.1-0.1,0.2-0.2,0.2h-2.9c0,0.7,0.6,1.3,1.3,1.3c0.4,0,0.8-0.2,1-0.3c0.2-0.1,0.2-0.1,0.3,0c0.1,0.1,0.1,0.2,0.2,0.3
	s0.1,0.2,0,0.3c-0.3,0.2-0.8,0.4-1.4,0.4c-1.3,0-2-1-2-2.1C58.2,26.9,58.9,26,60.2,26"/>
<path class="st0" d="M63,26.3c0-0.1,0.1-0.2,0.2-0.2h0.2c0.1,0,0.2,0,0.2,0.1l0.1,0.3c0,0,0.4-0.5,1.3-0.5c0.6,0,1,0.3,1.3,0.6
	c0.1,0,0.7-0.6,1.5-0.6c1.2,0,1.5,0.7,1.5,1.8v2.1c0,0.1-0.1,0.2-0.2,0.2h-0.4c-0.1,0-0.2-0.1-0.2-0.2v-2.1c0-0.7-0.4-1.2-0.9-1.2
	c-0.6,0-1.1,0.4-1.3,0.5c0,0.2,0.1,0.4,0.1,0.5v2.2c0,0.1-0.1,0.2-0.2,0.2H66c-0.1,0-0.2-0.1-0.2-0.2v-2.1c0-0.8-0.4-1.2-1-1.2
	c-0.7,0-1.2,0.5-1.2,0.5v2.7c0,0.1-0.1,0.2-0.2,0.2h-0.3c-0.1,0-0.2-0.1-0.2-0.2V26.3z"/>
<path class="st0" d="M73.9,27.7c0-0.5-0.5-1.1-1.2-1.1c-0.6,0-1.2,0.4-1.3,1.1H73.9z M72.8,26c1.1,0,1.8,0.8,1.8,1.8
	c0,0.1,0,0.2,0,0.3c0,0.1-0.1,0.2-0.2,0.2h-2.9c0,0.7,0.6,1.3,1.3,1.3c0.4,0,0.7-0.2,1-0.3c0.2-0.1,0.2-0.1,0.3,0
	c0.1,0.1,0.1,0.2,0.2,0.3s0.1,0.2,0,0.3c-0.3,0.2-0.8,0.4-1.4,0.4c-1.3,0-2-1-2-2.1C70.8,26.9,71.6,26,72.8,26"/>
<path class="st0" d="M75.7,26.3c0-0.1,0.1-0.2,0.2-0.2h0.2c0.1,0,0.2,0,0.2,0.1l0.1,0.3c0,0,0.5-0.5,1.4-0.5c1.2,0,1.5,0.7,1.5,1.8
	v2.1c0,0.1-0.1,0.2-0.2,0.2h-0.4c-0.1,0-0.2-0.1-0.2-0.2v-2.1c0-0.8-0.4-1.2-0.9-1.2c-0.7,0-1.3,0.5-1.3,0.5v2.7
	c0,0.1-0.1,0.2-0.2,0.2H76c-0.1,0-0.2-0.1-0.2-0.2L75.7,26.3L75.7,26.3z"/>
<path class="st0" d="M80.9,26.7h-0.5c-0.1,0-0.2-0.1-0.2-0.2v-0.2c0-0.1,0.1-0.2,0.2-0.2h0.5v-1.1c0-0.1,0.1-0.2,0.2-0.2h0.4
	c0.1,0,0.2,0.1,0.2,0.2v1.2h1.2c0.1,0,0.2,0.1,0.2,0.2v0.2c0,0.1-0.1,0.2-0.2,0.2h-1.2V29c0,0.4,0.1,0.4,0.4,0.4
	c0.3,0,0.6-0.2,0.7-0.2c0.2-0.1,0.2,0,0.3,0.1l0.2,0.3c0.1,0.1,0,0.2-0.1,0.3c-0.2,0.1-0.7,0.4-1.2,0.4c-0.8,0-0.9-0.4-0.9-1.1
	L80.9,26.7L80.9,26.7z"/>
<path class="st0" d="M87.2,26.3c0-0.1,0.1-0.2,0.2-0.2h0.2c0.1,0,0.2,0.1,0.2,0.2l0.1,0.3c0,0,0.4-0.5,1.2-0.5
	c0.3,0,0.8,0.1,0.7,0.4l-0.1,0.4c-0.1,0.1-0.2,0.1-0.3,0.1s-0.3-0.1-0.4-0.1c-0.7,0-1.1,0.5-1.1,0.5V30c0,0.1-0.1,0.2-0.2,0.2h-0.3
	c-0.1,0-0.2-0.1-0.2-0.2L87.2,26.3L87.2,26.3z"/>
<path class="st0" d="M93.3,27.7c0-0.5-0.5-1.1-1.2-1.1c-0.6,0-1.2,0.4-1.3,1.1H93.3z M92.2,26c1.1,0,1.8,0.8,1.8,1.8
	c0,0.1,0,0.2,0,0.3c0,0.1-0.1,0.2-0.2,0.2h-2.9c0,0.7,0.6,1.3,1.3,1.3c0.4,0,0.7-0.2,1-0.3c0.2-0.1,0.2-0.1,0.3,0
	c0.1,0.1,0.1,0.2,0.2,0.3s0.1,0.2,0,0.3c-0.3,0.2-0.8,0.4-1.4,0.4c-1.3,0-2-1-2-2.1C90.2,26.9,91,26,92.2,26"/>
<path class="st0" d="M94.8,29.5c0-0.1,0.1-0.2,0.2-0.3c0.1-0.1,0.2-0.1,0.3,0c0,0,0.4,0.4,1,0.4c0.4,0,0.6-0.2,0.6-0.4
	c0-0.4-0.3-0.5-0.9-0.8c-0.5-0.3-1.2-0.6-1.2-1.3c0-0.4,0.4-1.1,1.3-1.1c0.5,0,0.9,0.2,1.1,0.3c0.1,0.1,0.1,0.2,0.1,0.3l-0.1,0.2
	c-0.1,0.1-0.2,0.2-0.3,0.1c0,0-0.4-0.3-0.8-0.3c-0.4,0-0.5,0.3-0.5,0.4c0,0.4,0.4,0.4,0.7,0.7c0.7,0.4,1.3,0.6,1.3,1.3
	c0,0.5-0.5,1.2-1.3,1.2c-0.7,0-1.1-0.3-1.3-0.4C94.8,29.7,94.8,29.6,94.8,29.5"/>
<path class="st0" d="M99.1,26.3c0-0.1,0.1-0.2,0.2-0.2h0.3c0.1,0,0.2,0.1,0.2,0.2v3.6c0,0.1-0.1,0.2-0.2,0.2h-0.3
	c-0.1,0-0.2-0.1-0.2-0.2V26.3z M98.9,23.8c0-0.3,0.2-0.4,0.4-0.4c0.3,0,0.4,0.2,0.4,0.4s-0.2,0.4-0.4,0.4
	C99.2,24.3,98.9,24,98.9,23.8"/>
<path class="st0" d="M102.8,29.5c0.7,0,1.1-0.6,1.1-0.6v-2c0,0-0.4-0.3-1-0.3c-0.9,0-1.3,0.6-1.3,1.4
	C101.6,28.9,102.1,29.5,102.8,29.5 M102.9,26c0.6,0,1.1,0.3,1.1,0.3v-2.9c0-0.1,0.1-0.2,0.2-0.2h0.3c0.1,0,0.2,0.1,0.2,0.2v6.6
	c0,0.1-0.1,0.2-0.2,0.2h-0.2c-0.1,0-0.2-0.1-0.2-0.2l-0.1-0.3c0,0-0.4,0.5-1.3,0.5c-1,0-1.8-1-1.8-2.1C100.9,26.9,101.6,26,102.9,26
	"/>
<path class="st0" d="M109.3,27.7c0-0.5-0.5-1.1-1.2-1.1c-0.6,0-1.2,0.4-1.3,1.1H109.3z M108.2,26c1.1,0,1.8,0.8,1.8,1.8
	c0,0.1,0,0.2,0,0.3c0,0.1-0.1,0.2-0.2,0.2h-2.9c0,0.7,0.6,1.3,1.3,1.3c0.4,0,0.8-0.2,1-0.3c0.2-0.1,0.2-0.1,0.3,0
	c0.1,0.1,0.1,0.2,0.2,0.3s0.1,0.2,0,0.3c-0.3,0.2-0.8,0.4-1.4,0.4c-1.3,0-2-1-2-2.1C106.2,26.9,107,26,108.2,26"/>
<path class="st0" d="M111.1,26.3c0-0.1,0.1-0.2,0.2-0.2h0.2c0.1,0,0.2,0,0.2,0.1l0.1,0.3c0,0,0.5-0.5,1.4-0.5c1.2,0,1.5,0.7,1.5,1.8
	v2.1c0,0.1-0.1,0.2-0.2,0.2h-0.4c-0.1,0-0.2-0.1-0.2-0.2v-2.1c0-0.8-0.4-1.2-0.9-1.2c-0.7,0-1.3,0.5-1.3,0.5v2.7
	c0,0.1-0.1,0.2-0.2,0.2h-0.3c-0.1,0-0.2-0.1-0.2-0.2L111.1,26.3L111.1,26.3z"/>
<path class="st0" d="M117.8,26c0.6,0,1.1,0.3,1.4,0.7c0.1,0.1,0.1,0.2,0,0.3l-0.2,0.2c-0.2,0.2-0.2,0-0.3,0
	c-0.2-0.3-0.5-0.4-0.9-0.4c-0.7,0-1.3,0.6-1.3,1.4s0.5,1.4,1.3,1.4c0.6,0,0.8-0.3,1.1-0.5c0.1-0.1,0.2-0.1,0.3,0l0.1,0.1
	c0.1,0.1,0.1,0.2,0.1,0.3c-0.3,0.4-0.9,0.8-1.5,0.8c-1.1,0-2.1-0.9-2.1-2.1C115.8,26.9,116.7,26,117.8,26"/>
<path class="st0" d="M123.7,27.7c0-0.5-0.5-1.1-1.2-1.1c-0.6,0-1.2,0.4-1.3,1.1H123.7z M122.5,26c1.1,0,1.8,0.8,1.8,1.8
	c0,0.1,0,0.2,0,0.3c0,0.1-0.1,0.2-0.2,0.2h-2.9c0,0.7,0.6,1.3,1.3,1.3c0.4,0,0.8-0.2,1-0.3c0.2-0.1,0.2-0.1,0.3,0
	c0.1,0.1,0.1,0.2,0.2,0.3c0.1,0.1,0.1,0.2,0,0.3c-0.3,0.2-0.8,0.4-1.4,0.4c-1.3,0-2-1-2-2.1C120.7,26.9,121.4,26,122.5,26"/>
<path class="st0" d="M125.7,29.5c0-0.1,0.1-0.2,0.2-0.3c0.1-0.1,0.2-0.1,0.3,0c0,0,0.4,0.4,1,0.4c0.4,0,0.6-0.2,0.6-0.4
	c0-0.4-0.3-0.5-0.9-0.8c-0.5-0.3-1.2-0.6-1.2-1.3c0-0.4,0.4-1.1,1.3-1.1c0.5,0,0.9,0.2,1.1,0.3c0.1,0.1,0.1,0.2,0.1,0.3l-0.1,0.2
	c-0.1,0.1-0.2,0.2-0.3,0.1c0,0-0.4-0.3-0.8-0.3c-0.4,0-0.5,0.3-0.5,0.4c0,0.4,0.4,0.4,0.7,0.7c0.7,0.4,1.3,0.6,1.3,1.3
	c0,0.5-0.5,1.2-1.3,1.2c-0.7,0-1.1-0.3-1.3-0.4C125.7,29.7,125.7,29.6,125.7,29.5"/>
<path class="st0" d="M28.4,25.4L25.6,24l0,0l4.6-0.1C30,23.9,28.4,25.4,28.4,25.4 M25.6,24L25.6,24L25.6,24L25.6,24z M30.1,23.8
	L30.1,23.8L30.1,23.8L30.1,23.8z"/>
<path class="st0" d="M26.5,28.4L26.5,28.4L26.5,28.4L26.5,28.4 M26.5,28.4l-1-4.5l0,0l2.1,2.4C27.6,26.4,26.6,28.3,26.5,28.4
	 M25.6,24L25.6,24L25.6,24L25.6,24z"/>
<polygon class="st0" points="25.6,23.9 25.6,23.9 25.6,23.9 25.6,23.9 "/>
<path class="st0" d="M17.8,17.7c0.7-0.3,4.6-1.9,10.2-1.9c1.4,0,2.9,0.1,4.5,0.3c0,0-0.1,0.4-0.4,1.1C30,17,28,16.9,26.2,16.9
	C21.8,16.9,18.6,17.6,17.8,17.7"/>
<path class="st0" d="M19.7,32.6c-3.1-7.4-2.2-13.7-2-14.6c0,1.1,0.3,7,3,14C20.1,32.3,19.7,32.6,19.7,32.6"/>
<path class="st0" d="M17.1,32.9c0,0-0.4-0.1-1.1-0.4c1-7.4-0.2-13.2-0.4-14.3C15.9,19.1,18.3,25,17.1,32.9"/>
<path class="st0" d="M9.4,30.5L9.4,30.5L9.4,30.5L9.4,30.5 M9.4,30.5c-0.1-0.1-1.6-1.7-1.6-1.7L9.3,26l0,0L9.4,30.5z M9.3,25.9
	L9.3,25.9L9.3,25.9L9.3,25.9z"/>
<path class="st0" d="M1.3,21.1c-0.4-0.6-0.7-1-0.7-1c4.5-1.9,8.5-2.3,11.3-2.3c1.8,0,3,0.2,3.4,0.2C14.2,18.1,8.3,18.3,1.3,21.1"/>
<path class="st0" d="M6.9,28c0,0-1.9-1.1-2-1.1l4.5-1l0,0L6.9,28z M9.3,25.9L9.3,25.9L9.3,25.9L9.3,25.9z"/>
<polygon class="st0" points="9.3,25.9 9.3,26 9.3,25.9 "/>
<path class="st0" d="M4.8,26.9L4.8,26.9L4.8,26.9z"/>
<path class="st0" d="M2.7,9.8L2.7,9.8L2.7,9.8L2.7,9.8 M2.7,9.8c0.1-0.1,1.7-1.6,1.7-1.6l2.9,1.4l0,0L2.7,9.8z"/>
<path class="st0" d="M15.2,15.7c0-0.2,0-0.6-0.1-1.2l0,0l0,0l0,0l0,0c-0.2-2.3-0.8-7.2-3-12.8c0.6-0.4,1-0.7,1-0.7
	C16.3,8.4,15.4,14.7,15.2,15.7"/>
<path class="st0" d="M7.3,9.7L7.3,9.7L7.3,9.7L7.3,9.7z M7.3,9.7L7.3,9.7L5.2,7.2c0,0,1.1-1.9,1.1-2L7.3,9.7z"/>
<polygon class="st0" points="7.3,9.7 7.3,9.7 7.3,9.7 "/>
<path class="st0" d="M6.3,5.2C9.1,2.8,11.9,1,11.9,1c3.4,8,3.3,14.9,3.3,14.9L7.3,9.7L6.3,5.2z"/>
<path class="st0" d="M4.8,17.8c-1.4,0-2.9-0.1-4.5-0.3c0,0,0.1-0.4,0.4-1.1c2.1,0.3,4.1,0.4,5.9,0.4c4.5,0,7.6-0.7,8.4-0.8
	C14.4,16.2,10.4,17.8,4.8,17.8"/>
<path class="st0" d="M2.7,9.8C1.1,13.1,0,16.2,0,16.2c8.6,1.3,15.2-0.4,15.2-0.4L7.3,9.7L2.7,9.8z"/>
<path class="st0" d="M30.1,23.8c1.6-3.3,2.7-6.4,2.7-6.4c-8.6-1.3-15.2,0.4-15.2,0.4l7.9,6.2L30.1,23.8z"/>
<path class="st0" d="M26.5,28.4c-2.8,2.4-5.6,4.2-5.6,4.2c-3.4-8-3.3-14.9-3.3-14.9l7.9,6.2L26.5,28.4z"/>
<path class="st0" d="M9.4,30.5c3.3,1.6,6.4,2.7,6.4,2.7c1.3-8.6-0.4-15.2-0.4-15.2l-6.2,7.9L9.4,30.5z"/>
<path class="st0" d="M4.8,26.9c-2.4-2.8-4.2-5.6-4.2-5.6C8.6,18,15.5,18,15.5,18l-6.2,7.9L4.8,26.9z"/>
</svg>
