<?xml version="1.0" encoding="utf-8"?>
<!-- Generator: Adobe Illustrator 22.1.0, SVG Export Plug-In . SVG Version: 6.00 Build 0)  -->
<svg version="1.1" id="Layer_1" xmlns="http://www.w3.org/2000/svg" xmlns:xlink="http://www.w3.org/1999/xlink" x="0px" y="0px"
	 viewBox="0 0 30.9 30.3" style="enable-background:new 0 0 30.9 30.3;" xml:space="preserve">
<style type="text/css">
	.st0{fill:#6C9CD3;}
	.st1{fill:#1F81C5;}
	.st2{fill:#5A95CF;}
	.st3{fill:#3786C7;}
	.st4{fill:#957586;}
	.st5{fill:#9E8191;}
	.st6{fill:#A04C79;}
	.st7{fill:#B17192;}
	.st8{fill:#964F74;}
	.st9{fill:#BC85A1;}
	.st10{fill:#856173;}
	.st11{fill:#7B6887;}
	.st12{fill:#663F52;}
	.st13{fill:#0D73BB;}
	.st14{fill:#8D1F62;}
</style>
<g>
	<path class="st0" d="M28.3,21.4L28.3,21.4L28.3,21.4L28.3,21.4 M24,21.5L24,21.5L24,21.5L24,21.5 M26.7,22.9L24,21.6l0,0l4.3-0.1
		C28.2,21.5,26.7,22.9,26.7,22.9"/>
	<path class="st0" d="M24,21.5L24,21.5L24,21.5L24,21.5 M24.9,25.7L24,21.5l0,0l1.9,2.3C25.9,23.8,25,25.6,24.9,25.7 M24.9,25.8
		L24.9,25.8L24.9,25.8L24.9,25.8"/>
	<polyline class="st1" points="24,21.6 24,21.5 24,21.5 24,21.5 24,21.6 	"/>
	<g>
		<path class="st2" d="M16.7,15.7c0.7-0.3,4.4-1.8,9.6-1.8c1.3,0,2.7,0.1,4.2,0.3c0,0-0.1,0.4-0.4,1c-2-0.3-3.9-0.4-5.5-0.4
			C20.4,14.9,17.4,15.5,16.7,15.7"/>
		<path class="st3" d="M18.5,29.7c-2.9-6.9-2.1-12.9-1.9-13.7c0,1,0.2,6.6,2.8,13.1C18.8,29.4,18.5,29.7,18.5,29.7"/>
		<path class="st4" d="M16,29.9c0,0-0.4-0.1-1-0.4c0.9-6.9-0.2-12.4-0.4-13.4C14.9,17,17.2,22.5,16,29.9"/>
		<path class="st5" d="M8.7,23.4L8.7,23.4L8.7,23.4L8.7,23.4 M8.8,27.7c-0.1-0.1-1.5-1.6-1.5-1.6l1.3-2.7l0,0L8.8,27.7 M8.8,27.7
			L8.8,27.7L8.8,27.7L8.8,27.7"/>
		<path class="st6" d="M1.2,18.8c-0.4-0.6-0.6-0.9-0.6-0.9c4.2-1.8,8-2.1,10.6-2.1c1.7,0,2.8,0.2,3.2,0.2C13.3,16,7.8,16.2,1.2,18.8
			"/>
		<path class="st7" d="M8.7,23.4L8.7,23.4L8.7,23.4L8.7,23.4 M6.4,25.4c0,0-1.8-1-1.9-1l4.2-0.9l0,0L6.4,25.4"/>
		<polyline class="st8" points="8.7,23.4 8.7,23.4 8.7,23.4 8.7,23.4 8.7,23.4 		"/>
		<polyline class="st9" points="4.5,24.3 4.5,24.3 4.5,24.3 4.5,24.3 		"/>
		<path class="st0" d="M2.6,8.3c0.1-0.1,1.6-1.5,1.6-1.5l2.7,1.3l0,0L2.6,8.3 M2.6,8.3L2.6,8.3L2.6,8.3L2.6,8.3"/>
		<path class="st10" d="M14.3,13.8c0-0.2,0-0.6-0.1-1.1l0,0l0,0l0,0l0,0c-0.1-2.2-0.7-6.8-2.8-12c0.6-0.4,1-0.7,1-0.7
			C15.3,7,14.4,12.9,14.3,13.8"/>
		<path class="st5" d="M6.9,8.1L6.9,8.1l-2-2.3c0,0,1-1.8,1-1.9L6.9,8.1 M6.9,8.2L6.9,8.2L6.9,8.2L6.9,8.2"/>
		<polyline class="st11" points="6.9,8.1 6.8,8.1 6.9,8.1 6.9,8.1 6.9,8.1 		"/>
		<path class="st12" d="M5.9,3.9C8.5,1.7,11.2,0,11.2,0c3.1,7.5,3.1,14,3.1,14L6.9,8.2L5.9,3.9"/>
		<path class="st3" d="M4.5,15.8c-1.3,0-2.7-0.1-4.2-0.3c0,0,0.1-0.4,0.4-1c2,0.3,3.9,0.4,5.5,0.4c4.2,0,7.2-0.6,7.9-0.8
			C13.5,14.3,9.8,15.8,4.5,15.8"/>
		<g>
			<path class="st13" d="M2.6,8.3c-1.5,3.1-2.6,6-2.6,6c8,1.2,14.3-0.4,14.3-0.4L6.9,8.1L2.6,8.3"/>
		</g>
		<path class="st13" d="M28.3,21.4c1.5-3.1,2.6-6,2.6-6c-8-1.2-14.3,0.4-14.3,0.4l7.4,5.8L28.3,21.4"/>
		<path class="st12" d="M24.9,25.8c-2.6,2.2-5.2,3.9-5.2,3.9c-3.1-7.5-3.1-14-3.1-14l7.4,5.8L24.9,25.8"/>
		<path class="st12" d="M8.8,27.7c3.1,1.5,6,2.6,6,2.6c1.2-8-0.4-14.3-0.4-14.3l-5.8,7.4L8.8,27.7"/>
		<path class="st14" d="M4.5,24.3c-2.2-2.6-3.9-5.2-3.9-5.2c7.5-3.1,14-3.1,14-3.1l-5.8,7.4L4.5,24.3"/>
	</g>
</g>
</svg>
