<?xml version="1.0" encoding="utf-8"?>
<!-- Generator: Adobe Illustrator 23.0.3, SVG Export Plug-In . SVG Version: 6.00 Build 0)  -->
<svg version="1.1" id="Layer_1" xmlns="http://www.w3.org/2000/svg" xmlns:xlink="http://www.w3.org/1999/xlink" x="0px" y="0px"
	 viewBox="0 0 112.1 152.5" style="enable-background:new 0 0 112.1 152.5;" xml:space="preserve">
<style type="text/css">
	.st0{fill:#366263;}
</style>
<g id="Livello_24">
	<path class="st0" d="M103.8,38.8C86.5,48.9,68.7,57.9,50.5,66.2c6.6-12.5,13.4-25,20.3-37.3c3-5.3-5.3-10.1-8.2-4.8
		C56.3,35.9,50,47.7,44,59.6C37.6,40.1,31.2,20.7,24.7,1.3c-0.7-2.2-4-1.3-3.4,0.9c6,21.8,12.4,43.5,18.8,65.2
		c-0.3,0.6-0.5,1.1-0.8,1.7c-11.4-4.2-22.8-8.4-34.1-12.6c-5.2-1.9-7.4,6.4-2.3,8.3c9,3.4,18,6.9,26.9,10.5
		c-8.2,3.5-16.5,6.9-24.9,10.1c-4.6,1.8-2.7,9.2,2.1,7.5c8.5-3.2,17-6.4,25.5-9.7c-4.6,9.8-9.1,19.6-13.3,29.6
		c-1.7,4.1,5.5,7.2,7.3,3.1c5.2-11.9,10.8-23.6,16.6-35.2c0.4,0.2,0.8,0.3,1.1,0.5c6.8,22.7,13.6,45.3,19.9,68.1
		c1.6,5.8,10.9,3.2,8.9-2.5c-7.1-20.7-14-41.5-20.9-62.3c11.5,4.9,23,10,34.4,15.3c7.5,3.5,12.2-7.3,4.5-10.6
		c-12.3-5.2-24.7-10-37.2-14.8c18.9-7.9,37.5-16.4,55.6-26.2C115.7,45,110,35.2,103.8,38.8z"/>
</g>
</svg>
