<?xml version="1.0" encoding="utf-8"?>
<!-- Generator: Adobe Illustrator 23.0.3, SVG Export Plug-In . SVG Version: 6.00 Build 0)  -->
<svg version="1.1" id="Layer_1" xmlns="http://www.w3.org/2000/svg" xmlns:xlink="http://www.w3.org/1999/xlink" x="0px" y="0px"
	 viewBox="0 0 183.4 262.8" style="enable-background:new 0 0 183.4 262.8;" xml:space="preserve">
<style type="text/css">
	.st0{fill:#FDC806;}
	.st1{fill:#1D1D1B;}
</style>
<path class="st0" d="M181.8,82.1c-2.5-26.3-22-50.3-44.7-62.8C116,7.7,91.2,3.9,67.5,7.9c-23.6,3.9-44.4,19.3-55.8,40.3
	C-0.4,70.4-3.4,97.5,4.2,121.7c7.1,22.4,22.8,44.1,44.1,55c11.4,5.8,24.3,9.2,37.1,7.9c7.2-0.8,14.2-2.4,20.9-4.7
	c1.8-0.4,3.6-1,5.4-1.6c13.4-2.8,24.9-10.3,32.4-21.4c4.4-3.6,8.2-7.7,11.4-12.2c0.2-0.2,0.4-0.5,0.6-0.7
	C171,127.8,183.9,104.7,181.8,82.1z"/>
<g id="Livello_18">
	<path class="st1" d="M165.1,40.5c-7.1-9.4-16.1-15.8-25.7-22.4c-9.9-6.8-20.6-12.8-32.3-16.1c-11.6-3.3-23.6-2.3-35,1.2
		C59.8,7,49.1,14.6,39.3,22.8c-10.4,8.7-19.8,18.6-27.5,29.7c-1.2,1.7-1,3.5-0.1,4.9c-2.7,4.8-5,9.7-6.9,14.7
		c-4,10.4-4.8,21.6-4.6,32.7c0.3,22.4,8.4,43.3,22,61.1c7.8,10.2,18.3,18.8,30.1,24.5c-0.1,2.7-0.5,5.5-1.2,8.3
		c-1.3,4.8-5.4,9.8-0.8,14.1c2.3,2.1,5.3,3.5,8.5,4.5c-0.5,2.7-1.5,5.6-1.9,7.4c-0.9,3.9-2,8.6,0.2,12.2c2,3.3,6.4,4.8,10.1,5.8
		c-0.3,2.6-1.3,4.6-2.2,7.4c-0.8,2.5-0.9,4.8,0.7,6.9c3.3,4.4,10.4,3.7,15.2,4.5c6,1,14.4,3.1,19.4-1.9c3.7-3.7,3.9-9.4,3.2-14.4
		c2.9-0.8,5.6-1.9,7.8-3.6c3.6-2.7,4.2-6.4,4.7-10.5c0.5-3.5,1-7,1.3-10.5c3.7-0.9,7.2-2.3,10-4.8c4.4-4,4.9-10.3,4.8-16
		c-0.1-4.6-0.8-8.8-2.6-12.7c3.8-1.8,7.5-3.7,11-5.7c19.2-10.6,30.9-29.6,37.4-50c6.1-19.3,7.9-40.5,1.8-59.9
		C176.1,60.6,172.2,49.8,165.1,40.5z M91.8,254.4c-4.8,0.7-9.9-0.7-14.7-1c-1.6-0.1-4.7,0.3-6.1-0.6c-1.3-0.8-0.7-0.1-0.5-1.7
		c0.2-1,0.6-1.9,0.9-2.9c0.3-1.4,0.6-2.8,0.5-4.1c4.1,0.9,8.4,1.7,12.6,2.2c3.2,0.4,6.8,0.6,10.5,0.4
		C95.3,250,95.3,253.9,91.8,254.4z M105.9,226.8c-0.2,1.4-0.4,2.9-0.6,4.4c-0.4,2.2-0.4,2.5-2.6,3.3c-7.6,2.8-15.2,2.5-23.1,1.3
		c-4.3-0.7-8.9-1.2-13-2.7c-2.4-0.9-2.7-0.8-3.1-3.4c-0.3-2.2,0.7-4.9,1-7.1c0.2-1.1,0.3-2.4,0.4-3.7c1.4,0.3,2.7,0.5,3.9,0.7
		c6.7,1.1,13.4,2.4,20.1,3.1c5.9,0.6,11.7,0.4,17.6-0.2C106.3,223.9,106.1,225.4,105.9,226.8z M120.7,202.5
		c-0.2,4.7-1.5,6.1-5.3,7.3c-2.4-1.5-6-1.2-7.1,1.5c-8.8,1.4-17.7,1-26.5-0.4c-4.8-0.8-9.6-1.4-14.3-2.3c-2.3-0.4-4.7-0.9-7-1.7
		c-0.6-0.2-1.4-0.7-1.9-1c0.1-0.7,0.2-1.6,0.3-1.8c0.7-3.2,1.3-6.7,1.5-10.1c5.2,1.8,10.6,3,16.1,3.4c10.4,0.9,21.7,0.5,31.8-2.1
		c3.6-0.9,7.3-2.1,10.9-3.5C120.3,195.2,120.8,198.8,120.7,202.5z M51.1,176.5c0.4,0,0.8-0.1,1.2-0.2c-0.2,0.2-0.3,0.4-0.4,0.7
		C51.6,176.8,51.4,176.7,51.1,176.5z M106.2,153.2c2.1,6.4,4.7,12.4,8.6,17.9c1.8,2.5,3.8,4.7,5.9,6.9c-7.8,3.4-15.6,6.5-24.2,7.3
		c-8.8,0.8-18.4,1.3-27-1.2c-3.5-1-6.9-2.2-10.3-3.6c-0.4-1.3-0.9-2.6-1.5-3.9c-0.5-1.1-1.4-1.6-2.3-1.7c0.9-0.6,1.8-1.2,2.7-1.9
		c4.2-3.2,7.4-7.3,10.4-11.5c4.1-5.7,7.9-11.6,11.2-17.8c2.1,0.6,4.3,1.1,6.5,1.3c5.7,0.6,11.4-0.1,16.9-1.8
		C104.1,146.5,105.1,149.9,106.2,153.2z M59.6,85.8c1.5-6.2,5.2-12,11.2-14.7c2.5-1.1,6.1-2,8,0.4c1.8,2.3,2,6.3,2.4,9.1
		c2.1,16.5-0.1,32.2-5.9,47.6c-2.7-1.9-5.2-4.4-7.4-7.6C61,110.9,56.7,97.7,59.6,85.8z M162.3,58.6c4,8.5,7.3,18.5,8.8,27.8
		c1.3,8.5,0.5,17.8-0.9,26.2c-2.8,16.9-9.3,33.9-20.6,47c-4.9,5.7-11.1,9.7-17.7,13.1c-1.5-1.4-3-2.8-4.3-4.4
		c-3.2-3.9-6.1-8.4-8-13.1c-2.2-5.4-3.9-11.2-5.3-17c5.3-3.1,10-7.1,13.8-11.5c12-14,17.9-32.6,17.2-51c-0.3-7.3-1.2-16.2-6.4-21.9
		c-6-6.5-14.9-4.8-20.7,1.1c-6.9,7-11.2,17.5-14,26.7c-3.4,11.1-5,23.3-5,34.9c0,4.9,0.5,9.8,1.3,14.7c-5.1,1.8-10.5,2.4-15.6,1.4
		c7.1-17.2,9.7-35.2,7.4-53.8c-1-8-3.4-17.3-12.3-19.6c-9.3-2.5-19.4,3-25.1,10.2c-10.4,13-9.5,31.4-3.3,46.1
		c4,9.6,10.3,18.4,18.8,24c-2.5,5.1-5.4,10.1-8.4,15c-2.3,3.8-4.7,7.4-7.6,10.8c-2.9,3.3-6.4,4.5-9.7,6.9c-0.1,0.1-0.2,0.1-0.4,0.2
		c-0.4-0.3-0.7-0.5-1-0.8C29.1,160,18.4,142.1,14,124.4c-2.6-10.3-2.8-21.1-2.1-31.6c0.8-11.6,4.8-21.3,10.3-31.4
		c2.5-4.7,5.2-9,8.2-13c4.5-4.7,9-9.3,13.8-13.6c3.7-2.9,7.6-5.7,11.8-7.8c4.2-2.1,10.3-5,15.1-4.3c1.5,0.2,2.7-0.6,3.3-1.6
		c0.1,0,0.2,0,0.3-0.1c0.4-0.3,0.4-0.7,0.1-1c0.2-1.3-0.4-2.6-2.2-3.1c-0.5-0.1-1.1-0.2-1.6-0.3c7.3-3.1,15.6-4.8,23.3-4.4
		c8.6,0.4,17,3.9,24.6,7.8C136.1,28.2,153.9,40.7,162.3,58.6z M111.8,125.1c-1.8-15,0.4-31.4,5.7-45.3c2.1-5.5,5.2-13.2,9.8-17
		c4.3-3.6,5.2,4.6,5.6,7.7c1.9,13.3-0.8,27.4-7.3,39.1C122.3,115.6,117.4,121,111.8,125.1z"/>
</g>
</svg>
